<svg width="197" height="25" viewBox="0 0 197 25" fill="none" xmlns="http://www.w3.org/2000/svg">
<path d="M61.7805 15.3075L55.0915 0.485972H50.3575L61.7805 24.9886L73.2039 0.485972H68.4705L61.7805 15.3075ZM76.6896 24.3926H91.6272V20.0772H80.9984V14.5983H91.3161V10.2816H80.9984V4.77358H91.5431V0.486193H76.6896V24.3926ZM186.072 20.0772V0.485972H181.763V24.3926H196.786V20.0772H186.072ZM148.402 24.3926H152.71V0.485972H148.402V24.3926ZM116.117 24.3926H111.158L104.439 14.5972H102.484V24.3926H98.1751V0.485972H107.643C111.553 0.485972 114.756 3.69444 114.756 7.61267C114.756 10.906 112.404 13.6315 109.371 14.4273L116.117 24.3926ZM110.307 7.58394C110.307 6.05144 109.172 4.80209 107.614 4.80209H102.455V10.2818H107.614C109.172 10.2816 110.307 9.14606 110.307 7.58394ZM177.228 24.3926H172.268L165.551 14.5983H163.596V24.3939H159.344V0.485972H168.782C172.695 0.485972 175.897 3.69444 175.897 7.61267C175.897 10.906 173.602 13.6315 170.512 14.4273L177.23 24.3924L177.228 24.3926ZM171.446 7.58394C171.446 6.05144 170.312 4.80209 168.753 4.80209H163.596V10.2818H168.754C170.314 10.2816 171.446 9.14606 171.446 7.58394ZM45.7375 12.4396C45.7375 16.8408 42.1664 20.3888 37.8009 20.3888C33.408 20.3888 29.8647 16.8119 29.8647 12.4396C29.8647 8.03863 33.4354 4.48909 37.8009 4.48909C42.194 4.48909 45.7375 8.06714 45.7375 12.4396ZM37.8011 0.174078C31.027 0.174078 25.5563 5.654 25.5563 12.4396C25.5563 19.1687 31.027 24.6481 37.8011 24.6481C44.5759 24.6481 50.0459 19.1687 50.0459 12.4396C50.0459 5.654 44.5759 0.174078 37.8011 0.174078ZM19.0086 17.0393C17.563 19.0831 15.2107 20.418 12.5461 20.418C8.17039 20.4255 4.61738 16.8778 4.6101 12.4947C4.6101 12.4858 4.6101 12.4763 4.6101 12.4673C4.59355 8.09389 8.11854 4.53529 12.4845 4.51871C12.505 4.51827 12.5249 4.51827 12.5452 4.51871C15.1535 4.51871 17.5058 5.82376 18.9523 7.81139L22.6362 5.56867C20.3847 2.19421 16.5989 0.170099 12.5474 0.174078C5.77215 0.174078 0.301514 5.654 0.301514 12.4396C0.301514 19.1687 5.77215 24.6481 12.5463 24.6481C16.7706 24.6481 20.4816 22.5184 22.6651 19.2825L19.0086 17.0393ZM142.534 10.2816H129.638V14.5972H138.17C137.234 17.9193 134.173 20.3897 130.545 20.3897C126.123 20.3897 122.58 16.8119 122.58 12.4396C122.58 8.03863 126.151 4.48909 130.545 4.48909C133.181 4.48909 135.505 5.79547 136.952 7.78266L140.635 5.53972C138.452 2.27533 134.74 0.174078 130.545 0.174078C123.77 0.174078 118.3 5.654 118.3 12.4396C118.3 19.1687 123.77 24.6481 130.545 24.6481C137.263 24.6481 142.762 19.1687 142.762 12.4396C142.732 11.7011 142.677 10.9916 142.534 10.2816Z" fill="#141A25"/>
<path d="M190.134 1.67269C190.447 1.67269 190.603 1.6727 190.603 1.35964C190.603 1.12485 190.368 1.12485 190.212 1.12485H189.82V1.67269H190.134ZM190.134 1.98575H189.82V2.76839H189.429V0.811795H190.212C190.76 0.811795 190.994 0.968323 190.994 1.35964C190.994 1.75096 190.76 1.90749 190.447 1.90749L190.994 2.76839H190.603L190.134 1.98575ZM191.542 1.82922C191.542 1.04659 190.916 0.420477 190.212 0.420477C189.507 0.420477 188.881 1.04659 188.881 1.82922C188.881 2.53359 189.507 3.1597 190.212 3.1597C190.916 3.1597 191.542 2.53359 191.542 1.82922ZM190.212 0.107422C191.151 0.107422 191.934 0.811795 191.934 1.82922C191.934 2.76838 191.151 3.55102 190.212 3.55102C189.273 3.55102 188.49 2.76838 188.49 1.82922C188.49 0.811795 189.273 0.107422 190.212 0.107422Z" fill="#141A25"/>
</svg>
