<svg width="238" height="27" viewBox="0 0 238 27" fill="none" xmlns="http://www.w3.org/2000/svg">
<g clip-path="url(#clip0_154_848)">
<path d="M29.7763 16.118L21.4563 16.078L17.6763 26.328H16.9963L26.6763 0.588013L36.3163 26.328H33.3863L29.7763 16.118ZM29.5663 15.548L25.7063 4.65801L21.6763 15.548H29.5663Z" fill="#141A25"/>
<path d="M63.0563 26.328V3.44797L52.8763 26.518L41.0663 3.62797V26.338H40.4563V1.33797L42.9963 1.29797L53.9563 22.438L63.3063 1.33797H65.6663V26.328H63.0563Z" fill="#141A25"/>
<path d="M72.2263 26.328V1.33801H74.7963V26.328H72.2263Z" fill="#141A25"/>
<path d="M81.2664 26.328V1.33801H95.1564V1.90801H83.8064V13.158H90.5164V13.728H83.8064V25.728H96.5564V26.338H81.2764L81.2664 26.328Z" fill="#141A25"/>
<path d="M120.246 1.90801V26.298H117.706V1.90801H108.816V1.33801H128.886V1.90801H120.246Z" fill="#141A25"/>
<path d="M149.956 1.33801V16.048C149.956 18.008 149.956 26.478 141.316 26.478C132.676 26.478 132.496 18.658 132.496 13.058V1.33801H135.136V15.268C135.136 20.628 136.746 25.368 142.066 25.298C146.816 25.258 149.316 22.408 149.316 15.938V1.33801H149.956Z" fill="#141A25"/>
<path d="M170.666 26.328L165.166 17.048C163.806 14.728 162.376 14.298 160.486 14.228C159.946 14.188 159.376 14.228 158.776 14.228V26.328H156.206V1.29803C157.916 1.29803 160.066 1.22803 161.776 1.22803C165.986 1.26803 168.846 1.72803 170.276 4.15803C170.956 5.19803 171.236 6.40803 171.206 7.72803C171.096 9.76803 170.096 11.688 168.706 12.728C167.816 13.408 166.456 13.978 165.096 14.118C165.846 14.328 166.886 14.978 168.166 17.228L173.556 26.328H170.666ZM168.666 7.72803C168.706 2.83803 165.706 1.61803 161.346 1.54803C160.526 1.50803 159.666 1.54803 158.776 1.58803V13.868H161.846C165.986 13.828 168.596 11.408 168.666 7.72803Z" fill="#141A25"/>
<path d="M194.046 1.33799V26.478H193.726L177.556 5.62799V26.338H176.946V1.22799L177.446 1.18799L193.366 21.398L193.506 1.32799H194.046V1.33799Z" fill="#141A25"/>
<path d="M200.576 26.328V1.33801H214.466V1.90801H203.116V13.158H209.826V13.728H203.116V25.728H215.866V26.338H200.586L200.576 26.328Z" fill="#141A25"/>
<path d="M234.426 26.328L228.926 17.048C227.566 14.728 226.136 14.298 224.246 14.228C223.706 14.188 223.136 14.228 222.536 14.228V26.328H219.966V1.29803C221.676 1.29803 223.826 1.22803 225.536 1.22803C229.746 1.26803 232.606 1.72803 234.036 4.15803C234.716 5.19803 234.996 6.40803 234.966 7.72803C234.856 9.76803 233.856 11.688 232.466 12.728C231.576 13.408 230.216 13.978 228.856 14.118C229.606 14.328 230.646 14.978 231.926 17.228L237.316 26.328H234.426ZM232.426 7.72803C232.466 2.83803 229.466 1.61803 225.106 1.54803C224.286 1.50803 223.426 1.54803 222.536 1.58803V13.868H225.606C229.746 13.828 232.356 11.408 232.426 7.72803Z" fill="#141A25"/>
<path d="M11.6864 20.688C11.6864 24.148 10.2164 25.878 7.58638 25.878C4.95638 25.878 3.44638 23.958 3.12638 20.938H0.786377C1.29638 24.468 3.99638 26.388 7.58638 26.388C11.1764 26.388 14.3164 24.498 14.3164 20.238V1.36804H11.6964V20.688H11.6864Z" fill="#141A25"/>
</g>
<defs>
<clipPath id="clip0_154_848">
<rect width="236.53" height="25.92" fill="white" transform="translate(0.786377 0.588013)"/>
</clipPath>
</defs>
</svg>
