<svg width="197" height="37" viewBox="0 0 197 37" fill="none" xmlns="http://www.w3.org/2000/svg">
<g clip-path="url(#clip0_5324_5219)">
<path d="M49.6742 30.1441C49.6742 30.7169 50.247 30.6055 50.5971 30.4862C53.708 29.4519 55.8959 26.4683 55.8959 22.9119V3.40331C55.8959 2.94185 55.5538 2.59973 55.0924 2.59973H50.4857C50.0243 2.59973 49.6821 2.94185 49.6821 3.40331V30.1441H49.6742Z" fill="#141A25"/>
<path d="M20.6897 19.4511H34.8836C38.074 19.4511 45.2903 18.7669 45.2903 11.7654V10.1582C45.2903 2.47256 37.4852 2.59191 35.1143 2.59191H17.6107C17.1412 2.59191 16.7832 2.93402 16.7832 3.39548V5.34475C16.7832 5.68687 16.7832 6.02898 16.9026 6.37906C17.0219 6.9519 17.4913 7.41336 17.9687 7.75548C18.4381 8.09759 19.0348 8.09759 19.5042 8.09759H35.711C37.1272 8.09759 38.9014 8.32832 38.9014 10.1582V11.7654C38.9014 14.0568 36.4191 13.8261 35.353 13.8261H19.9736C11.4605 13.8261 11.2218 20.016 11.3412 21.1696V29.7703C11.3412 30.2317 11.6992 30.5739 12.1686 30.5739H42.8C43.158 30.5739 43.5081 30.5739 43.8661 30.4625C44.3355 30.2317 44.9322 29.8896 45.1709 29.4282C45.4096 28.9667 45.529 28.3939 45.529 27.9403V25.7604C45.529 25.2989 45.1709 24.9568 44.7015 24.9568H17.738V23.5804C17.6186 21.4004 17.1492 19.4511 20.6977 19.4511H20.6897Z" fill="#141A25"/>
<path d="M7.18793 3.03729C7.18793 2.46444 6.61509 2.57583 6.26501 2.69517C3.15414 3.72152 0.966187 6.70509 0.966187 10.2615V29.7701C0.966187 30.2316 1.3083 30.5737 1.76976 30.5737H6.3764C6.83786 30.5737 7.17998 30.2316 7.17998 29.7701V3.03729H7.18793Z" fill="#141A25"/>
<path d="M77.1786 32.6503L91.1338 13.7941H85.3815L89.6619 0.523193L75.5874 19.3794H81.467L77.1786 32.6503Z" fill="#141A25"/>
<path d="M134.734 11.2482H128.918C128.814 10.4924 128.592 9.82406 128.265 9.24326C127.939 8.64654 127.518 8.1453 127.008 7.73158C126.491 7.31786 125.902 6.99961 125.226 6.77683C124.566 6.55406 123.842 6.44267 123.062 6.44267C121.654 6.44267 120.429 6.79275 119.386 7.49289C118.344 8.18508 117.533 9.19552 116.96 10.5242C116.387 11.8449 116.1 13.4441 116.1 15.3297C116.1 17.2154 116.387 18.8941 116.96 20.2149C117.541 21.5356 118.36 22.5301 119.402 23.2064C120.445 23.8827 121.654 24.2168 123.03 24.2168C123.802 24.2168 124.51 24.1134 125.171 23.9145C125.831 23.7076 126.42 23.4132 126.937 23.0234C127.454 22.6256 127.876 22.1402 128.21 21.5754C128.552 21.0105 128.791 20.366 128.926 19.634L134.742 19.6579C134.591 20.907 134.217 22.1084 133.612 23.27C133.015 24.4237 132.22 25.45 131.209 26.365C130.207 27.264 129.013 27.9881 127.621 28.5132C126.237 29.0383 124.677 29.2929 122.935 29.2929C120.508 29.2929 118.344 28.7439 116.427 27.6459C114.525 26.548 113.021 24.9567 111.915 22.8802C110.818 20.8036 110.269 18.2815 110.269 15.3218C110.269 12.3621 110.825 9.83201 111.939 7.75545C113.053 5.67888 114.565 4.08764 116.482 2.99764C118.392 1.89969 120.548 1.35071 122.935 1.35071C124.51 1.35071 125.974 1.57348 127.319 2.01107C128.671 2.45662 129.873 3.10107 130.915 3.95238C131.957 4.79574 132.808 5.82209 133.461 7.04735C134.129 8.2726 134.551 9.66493 134.734 11.2403V11.2482ZM147.965 29.3247C145.904 29.3247 144.122 28.8871 142.61 28.0119C141.115 27.1288 139.961 25.8956 139.142 24.3202C138.33 22.737 137.916 20.8991 137.916 18.8066C137.916 16.7141 138.322 14.8603 139.142 13.285C139.953 11.7017 141.115 10.4685 142.61 9.59333C144.114 8.71019 145.896 8.26464 147.965 8.26464C150.034 8.26464 151.808 8.71019 153.304 9.59333C154.807 10.4685 155.969 11.7017 156.78 13.285C157.592 14.8603 158.006 16.7062 158.006 18.8066C158.006 20.907 157.6 22.729 156.78 24.3202C155.969 25.8956 154.807 27.1288 153.304 28.0119C151.808 28.8871 150.026 29.3247 147.965 29.3247ZM147.997 24.9408C148.936 24.9408 149.715 24.6783 150.344 24.1452C150.972 23.6042 151.442 22.8722 151.768 21.9413C152.094 21.0105 152.261 19.9523 152.261 18.7668C152.261 17.5814 152.094 16.5232 151.768 15.5923C151.45 14.6614 150.972 13.9295 150.344 13.3884C149.715 12.8474 148.936 12.5769 147.997 12.5769C147.058 12.5769 146.254 12.8474 145.602 13.3884C144.966 13.9295 144.48 14.6614 144.154 15.5923C143.836 16.5232 143.677 17.5814 143.677 18.7668C143.677 19.9523 143.836 21.0105 144.154 21.9413C144.48 22.8722 144.966 23.6042 145.602 24.1452C146.246 24.6783 147.042 24.9408 147.997 24.9408ZM161.681 28.9269V8.5272H167.163V12.0836H167.378C167.752 10.8186 168.373 9.86384 169.248 9.21143C170.123 8.55902 171.133 8.22486 172.279 8.22486C172.566 8.22486 172.868 8.24077 173.194 8.28056C173.52 8.31238 173.807 8.36807 174.061 8.42377V13.4441C173.799 13.3646 173.425 13.293 172.955 13.2293C172.486 13.1657 172.056 13.1338 171.667 13.1338C170.831 13.1338 170.091 13.3168 169.439 13.6749C168.794 14.0329 168.277 14.5262 167.895 15.1627C167.521 15.7992 167.338 16.5311 167.338 17.3665V28.903H161.681V28.9269ZM176.989 36.5728V8.5272H182.567V11.9563H182.821C183.068 11.4073 183.426 10.8504 183.895 10.2855C184.373 9.71267 184.993 9.2353 185.757 8.8534C186.529 8.46355 187.483 8.2726 188.629 8.2726C190.117 8.2726 191.485 8.66245 192.742 9.44216C194 10.2139 195.002 11.3755 195.758 12.9349C196.514 14.4864 196.888 16.4277 196.888 18.7668C196.888 21.1059 196.522 22.9597 195.782 24.5271C195.058 26.0865 194.063 27.264 192.806 28.0756C191.557 28.8712 190.157 29.269 188.613 29.269C187.515 29.269 186.584 29.086 185.813 28.728C185.049 28.362 184.428 27.9085 183.943 27.3595C183.458 26.8026 183.084 26.2377 182.829 25.6728H182.654V36.5887H176.997L176.989 36.5728ZM182.527 18.727C182.527 19.9364 182.694 20.9946 183.028 21.9016C183.362 22.8086 183.855 23.5087 184.492 24.01C185.128 24.5032 185.908 24.7499 186.815 24.7499C187.722 24.7499 188.518 24.4953 189.154 23.994C189.791 23.4769 190.276 22.7688 190.602 21.8697C190.936 20.9548 191.111 19.9125 191.111 18.7191C191.111 17.5257 190.944 16.5073 190.618 15.6082C190.292 14.7171 189.807 14.017 189.17 13.5078C188.534 13.0065 187.746 12.7519 186.823 12.7519C185.9 12.7519 185.12 12.9986 184.484 13.4839C183.855 13.9692 183.37 14.6614 183.036 15.5525C182.702 16.4436 182.535 17.5018 182.535 18.7111L182.527 18.727Z" fill="#141A25"/>
</g>
<defs>
<clipPath id="clip0_5324_5219">
<rect width="195.913" height="36.0495" fill="white" transform="translate(0.966309 0.523193)"/>
</clipPath>
</defs>
</svg>
