<svg width="231" height="37" viewBox="0 0 231 37" fill="none" xmlns="http://www.w3.org/2000/svg">
<path d="M38.222 2.38814C30.8174 4.71718 24.0168 14.0159 24.0168 14.0159L29.8197 19.9301C29.8197 19.9301 43.0183 4.91781 50.2215 6.61007C50.2215 6.61007 46.9043 1.8822 41.3641 1.8822C40.3838 1.8822 39.3335 2.0305 38.2132 2.37942" fill="#141A25"/>
<path d="M8.28027 5.45956C12.0088 4.58726 17.2952 8.05901 21.5751 11.7314C23.5532 9.25406 24.831 7.81476 27.3167 5.42466C25.1024 3.54922 22.9318 2.05759 20.2798 1.2289C19.1595 0.87998 18.1092 0.731689 17.1289 0.731689C11.5974 0.731689 8.28027 5.45956 8.28027 5.45956Z" fill="#141A25"/>
<path d="M0 14.121C4.87508 12.9783 12.6209 19.3548 17.1109 23.5855C19.2465 25.6005 29.408 36.321 29.408 36.321L34.8082 30.7906L26.3359 21.1692C26.3359 21.1692 18.0124 11.7047 11.9995 9.89035C10.8967 9.55888 9.86393 9.41931 8.90117 9.41931C3.3259 9.41931 0 14.121 0 14.121Z" fill="#141A25"/>
<path d="M47.3859 10.17C44.7339 10.9987 42.5634 12.4904 40.349 14.3571L31.8154 22.7224L37.1456 28.4622L45.4779 20.5417C49.7578 16.8693 55.6569 13.511 59.3854 14.3833C59.3854 14.3833 56.0683 9.6554 50.5368 9.6554C49.5565 9.6554 48.5062 9.80369 47.3859 10.1526" fill="#141A25"/>
<path d="M74.0248 14.2506C72.0134 12.489 71.4771 10.1988 71.4771 8.21246C71.4771 6.82138 71.9098 4.40369 73.8785 2.59954C75.3596 1.25098 77.31 0.430908 80.3697 0.430908C81.6436 0.430908 82.4055 0.509878 83.3502 0.637444C84.1304 0.740712 84.7886 0.922951 85.4042 0.983697C85.6298 1.00192 85.7151 1.10519 85.7151 1.22668C85.7151 1.39069 85.6541 1.63368 85.6115 2.35048C85.5688 3.02476 85.5932 4.15463 85.5505 4.56163C85.5322 4.87143 85.4896 5.03545 85.3006 5.03545C85.1361 5.03545 85.0934 4.87143 85.0934 4.58593C85.0751 3.95417 84.8069 3.23737 84.2949 2.70281C83.6184 1.986 82.0154 1.43322 80.1259 1.43322C78.3401 1.43322 77.1698 1.88274 76.2617 2.70281C74.7623 4.07566 74.3722 6.01953 74.3722 8.00592C74.3722 12.8777 78.0902 15.2954 80.8451 15.2954C82.6737 15.2954 83.783 15.0889 84.6058 14.1473C84.9532 13.7586 85.2214 13.1632 85.3067 12.7988C85.3677 12.4707 85.4103 12.3918 85.5749 12.3918C85.7212 12.3918 85.7578 12.5376 85.7578 12.7016C85.7578 12.9446 85.514 14.7305 85.3067 15.423C85.2031 15.7692 85.1239 15.8725 84.7704 16.0183C83.9475 16.3463 82.3872 16.4921 81.0707 16.4921C78.2547 16.4921 75.896 15.8786 74.0248 14.2627V14.2506Z" fill="#141A25"/>
<path d="M91.5907 10.8481C91.4871 10.8481 91.4445 10.8907 91.4079 11.0122L90.2986 13.9401C90.0914 14.4504 89.9878 14.9424 89.9878 15.1915C89.9878 15.562 90.1706 15.8232 90.8106 15.8232H91.1153C91.3652 15.8232 91.4262 15.8658 91.4262 15.9872C91.4262 16.1513 91.3043 16.1938 91.0788 16.1938C90.4205 16.1938 89.5367 16.133 88.9028 16.133C88.6773 16.133 87.5497 16.1938 86.477 16.1938C86.2088 16.1938 86.0869 16.1513 86.0869 15.9872C86.0869 15.8658 86.1662 15.8232 86.3307 15.8232C86.5136 15.8232 86.8061 15.805 86.9646 15.7807C87.9093 15.6592 88.2994 14.9606 88.7139 13.9401L93.8703 1.0802C94.1202 0.484892 94.2421 0.260132 94.4432 0.260132C94.6261 0.260132 94.7541 0.442369 94.9552 0.916187C95.4489 2.03999 98.7342 10.3986 100.051 13.5088C100.831 15.3494 101.428 15.641 101.861 15.7382C102.172 15.7989 102.477 15.8232 102.726 15.8232C102.891 15.8232 102.995 15.8415 102.995 15.9872C102.995 16.1513 102.812 16.1938 102.05 16.1938C101.288 16.1938 99.813 16.1938 98.1673 16.1513C97.7955 16.133 97.5517 16.133 97.5517 15.9872C97.5517 15.8658 97.6309 15.8232 97.8382 15.805C97.9845 15.7625 98.1246 15.5802 98.021 15.3373L96.3754 10.9939C96.3327 10.8907 96.2718 10.8481 96.1681 10.8481H91.5847H91.5907ZM95.7841 9.82153C95.8878 9.82153 95.906 9.76079 95.8878 9.70004L94.041 4.63991C94.0227 4.56094 93.9983 4.45767 93.9373 4.45767C93.8764 4.45767 93.8337 4.56094 93.8154 4.63991L91.926 9.67575C91.9077 9.75471 91.926 9.82153 92.0052 9.82153H95.7841Z" fill="#141A25"/>
<path d="M105.153 6.65106C105.153 3.54087 105.153 2.96378 105.11 2.30773C105.067 1.60915 104.903 1.28112 104.226 1.14141C104.062 1.09888 103.714 1.08066 103.428 1.08066C103.202 1.08066 103.08 1.03814 103.08 0.898424C103.08 0.758708 103.227 0.716187 103.531 0.716187C104.622 0.716187 105.915 0.776933 106.347 0.776933C107.048 0.776933 108.609 0.716187 109.242 0.716187C110.535 0.716187 111.912 0.837678 113.021 1.597C113.594 1.98577 114.417 3.0306 114.417 4.40346C114.417 5.91604 113.783 7.31319 111.705 8.98978C113.533 11.286 114.953 13.1023 116.16 14.3719C117.312 15.5625 118.153 15.7022 118.464 15.7629C118.69 15.8055 118.873 15.8237 119.037 15.8237C119.202 15.8237 119.281 15.8844 119.281 15.9877C119.281 16.1517 119.135 16.1942 118.891 16.1942H116.94C115.789 16.1942 115.277 16.091 114.74 15.8055C113.856 15.3377 113.076 14.3719 111.924 12.7985C111.101 11.6747 110.157 10.2776 109.888 9.97386C109.785 9.85237 109.663 9.82807 109.517 9.82807L107.731 9.78555C107.627 9.78555 107.566 9.82807 107.566 9.94956V10.2351C107.566 12.1364 107.566 13.7583 107.67 14.6148C107.731 15.2102 107.853 15.6597 108.468 15.7386C108.779 15.7812 109.23 15.8237 109.474 15.8237C109.639 15.8237 109.724 15.8844 109.724 15.9877C109.724 16.1335 109.578 16.1942 109.316 16.1942C108.121 16.1942 106.603 16.1335 106.292 16.1335C105.902 16.1335 104.61 16.1942 103.787 16.1942C103.519 16.1942 103.379 16.1335 103.379 15.9877C103.379 15.8844 103.458 15.8237 103.708 15.8237C104.019 15.8237 104.263 15.7812 104.446 15.7386C104.854 15.6597 104.958 15.2041 105.043 14.6148C105.147 13.7523 105.147 12.1364 105.147 10.2533V6.65106H105.153ZM107.578 8.2669C107.578 8.49166 107.621 8.57671 107.761 8.63745C108.194 8.78324 108.81 8.84399 109.322 8.84399C110.144 8.84399 110.413 8.76502 110.778 8.49774C111.394 8.04822 111.991 7.10665 111.991 5.42399C111.991 2.51427 110.059 1.67597 108.846 1.67597C108.334 1.67597 107.962 1.69419 107.755 1.75494C107.609 1.79746 107.572 1.87643 107.572 2.04045V8.2669H107.578Z" fill="#141A25"/>
<path d="M120.67 6.65106C120.67 3.54087 120.67 2.96378 120.628 2.30773C120.585 1.60915 120.42 1.28112 119.744 1.14141C119.579 1.09888 119.232 1.08066 118.945 1.08066C118.72 1.08066 118.598 1.03814 118.598 0.898424C118.598 0.758708 118.744 0.716187 119.049 0.716187C120.14 0.716187 121.432 0.776933 121.865 0.776933C122.566 0.776933 124.126 0.716187 124.76 0.716187C126.052 0.716187 127.43 0.837678 128.539 1.597C129.112 1.98577 129.935 3.0306 129.935 4.40346C129.935 5.91604 129.301 7.31319 127.222 8.98978C129.051 11.286 130.471 13.1023 131.678 14.3719C132.83 15.5625 133.671 15.7022 133.982 15.7629C134.207 15.8055 134.39 15.8237 134.555 15.8237C134.719 15.8237 134.799 15.8844 134.799 15.9877C134.799 16.1517 134.652 16.1942 134.408 16.1942H132.458C131.306 16.1942 130.794 16.091 130.258 15.8055C129.374 15.3377 128.594 14.3719 127.442 12.7985C126.619 11.6747 125.674 10.2776 125.406 9.97386C125.302 9.85237 125.181 9.82807 125.034 9.82807L123.248 9.78555C123.145 9.78555 123.084 9.82807 123.084 9.94956V10.2351C123.084 12.1364 123.084 13.7583 123.187 14.6148C123.248 15.2102 123.37 15.6597 123.986 15.7386C124.297 15.7812 124.748 15.8237 124.992 15.8237C125.156 15.8237 125.242 15.8844 125.242 15.9877C125.242 16.1335 125.095 16.1942 124.833 16.1942C123.639 16.1942 122.121 16.1335 121.81 16.1335C121.42 16.1335 120.128 16.1942 119.305 16.1942C119.037 16.1942 118.897 16.1335 118.897 15.9877C118.897 15.8844 118.976 15.8237 119.226 15.8237C119.537 15.8237 119.78 15.7812 119.963 15.7386C120.372 15.6597 120.475 15.2041 120.561 14.6148C120.664 13.7523 120.664 12.1364 120.664 10.2533V6.65106H120.67ZM123.096 8.2669C123.096 8.49166 123.139 8.57671 123.279 8.63745C123.712 8.78324 124.327 8.84399 124.839 8.84399C125.662 8.84399 125.93 8.76502 126.296 8.49774C126.912 8.04822 127.509 7.10665 127.509 5.42399C127.509 2.51427 125.577 1.67597 124.364 1.67597C123.852 1.67597 123.48 1.69419 123.273 1.75494C123.127 1.79746 123.09 1.87643 123.09 2.04045V8.2669H123.096Z" fill="#141A25"/>
<path d="M136.182 6.65079C136.182 3.5406 136.182 2.96351 136.139 2.30746C136.097 1.60888 135.889 1.26263 135.438 1.15936C135.213 1.09861 134.945 1.08039 134.701 1.08039C134.494 1.08039 134.372 1.03787 134.372 0.873853C134.372 0.752361 134.536 0.709839 134.866 0.709839C135.646 0.709839 136.938 0.770585 137.535 0.770585C138.047 0.770585 139.26 0.709839 140.04 0.709839C140.308 0.709839 140.473 0.752361 140.473 0.873853C140.473 1.03787 140.351 1.08039 140.144 1.08039C139.937 1.08039 139.772 1.09861 139.528 1.14113C138.974 1.2444 138.809 1.59065 138.766 2.30746C138.724 2.96351 138.724 3.53452 138.724 6.65079V10.253C138.724 12.2394 138.724 13.8552 138.809 14.7361C138.87 15.2889 139.016 15.6594 139.632 15.7384C139.918 15.7809 140.369 15.8234 140.68 15.8234C140.906 15.8234 141.009 15.8842 141.009 15.9874C141.009 16.1332 140.845 16.194 140.619 16.194C139.266 16.194 137.968 16.1332 137.413 16.1332C136.938 16.1332 135.646 16.194 134.823 16.194C134.555 16.194 134.414 16.1332 134.414 15.9874C134.414 15.8842 134.494 15.8234 134.744 15.8234C135.054 15.8234 135.298 15.7809 135.481 15.7384C135.889 15.6594 136.017 15.3071 136.078 14.7118C136.182 13.8492 136.182 12.2333 136.182 10.2469V6.64471V6.65079Z" fill="#141A25"/>
<path d="M146.623 13.4119C146.666 15.0095 146.934 15.5441 147.342 15.6838C147.69 15.8053 148.08 15.8296 148.409 15.8296C148.635 15.8296 148.757 15.8721 148.757 15.9936C148.757 16.1576 148.574 16.2001 148.281 16.2001C146.946 16.2001 146.123 16.1394 145.733 16.1394C145.551 16.1394 144.581 16.2001 143.515 16.2001C143.247 16.2001 143.064 16.1819 143.064 15.9936C143.064 15.8721 143.186 15.8296 143.393 15.8296C143.661 15.8296 144.027 15.8114 144.319 15.7263C144.856 15.5623 144.935 14.967 144.953 13.1871L145.136 1.06833C145.136 0.661331 145.197 0.369751 145.404 0.369751C145.63 0.369751 145.813 0.637032 146.166 1.00151C146.41 1.26879 149.537 4.60374 152.535 7.57422C153.931 8.9653 156.704 11.9175 157.052 12.2395H157.155L156.948 3.04865C156.93 1.79728 156.741 1.40851 156.247 1.20804C155.943 1.08655 155.449 1.08655 155.156 1.08655C154.913 1.08655 154.827 1.02581 154.827 0.904314C154.827 0.7403 155.053 0.722077 155.364 0.722077C156.43 0.722077 157.418 0.782823 157.85 0.782823C158.076 0.782823 158.856 0.722077 159.862 0.722077C160.13 0.722077 160.337 0.7403 160.337 0.904314C160.337 1.02581 160.215 1.08655 159.965 1.08655C159.758 1.08655 159.594 1.08655 159.35 1.1473C158.777 1.31131 158.612 1.74261 158.588 2.8907L158.362 15.8114C158.362 16.2609 158.283 16.4431 158.094 16.4431C157.869 16.4431 157.619 16.2184 157.393 15.9936C156.101 14.7665 153.468 12.0816 151.335 9.97368C149.098 7.76253 146.818 5.20512 146.446 4.81635H146.386L146.611 13.418L146.623 13.4119Z" fill="#141A25"/>
<path d="M177.196 14.8216C177.196 15.3744 177.177 15.4169 176.927 15.5566C175.593 16.2552 173.581 16.48 171.978 16.48C166.944 16.48 162.488 14.1048 162.488 8.45544C162.488 5.18124 164.195 2.88504 166.066 1.76124C168.041 0.570624 169.869 0.430908 171.594 0.430908C173.014 0.430908 174.818 0.673892 175.233 0.758937C175.666 0.837906 176.385 0.965473 176.854 0.983697C177.098 1.00192 177.141 1.08696 177.141 1.22668C177.141 1.45144 176.994 2.02245 176.994 4.58593C176.994 4.91396 176.933 5.01722 176.769 5.01722C176.623 5.01722 176.586 4.91396 176.562 4.74994C176.501 4.27612 176.397 3.62614 175.861 3.04906C175.245 2.393 173.599 1.45144 171.277 1.45144C170.15 1.45144 168.65 1.53041 167.212 2.72103C166.06 3.68081 165.322 5.21769 165.322 7.73864C165.322 12.1427 168.138 15.4351 172.472 15.4351C173.008 15.4351 173.727 15.4351 174.221 15.2104C174.532 15.0646 174.611 14.8034 174.611 14.4511V12.5254C174.611 11.4988 174.611 10.7213 174.593 10.1077C174.575 9.40915 174.386 9.08113 173.709 8.94141C173.545 8.89889 173.197 8.88066 172.911 8.88066C172.728 8.88066 172.6 8.83814 172.6 8.71665C172.6 8.55263 172.746 8.51011 173.033 8.51011C174.099 8.51011 175.397 8.57086 176.013 8.57086C176.629 8.57086 177.738 8.51011 178.415 8.51011C178.683 8.51011 178.823 8.55263 178.823 8.71665C178.823 8.83814 178.701 8.88066 178.555 8.88066C178.39 8.88066 178.244 8.89889 178 8.94141C177.445 9.04468 177.238 9.39093 177.22 10.1077C177.202 10.7213 177.202 11.5413 177.202 12.5619V14.8155L177.196 14.8216Z" fill="#141A25"/>
<path d="M185.662 1.85789L182.602 1.93686C181.408 1.97938 180.92 2.08265 180.609 2.53217C180.402 2.84197 180.304 3.08496 180.262 3.24897C180.219 3.41298 180.158 3.49195 180.036 3.49195C179.89 3.49195 179.853 3.38869 179.853 3.16393C179.853 2.8359 180.243 0.971 180.286 0.806986C180.347 0.539704 180.408 0.418213 180.53 0.418213C180.695 0.418213 180.902 0.624749 181.414 0.661196C182.011 0.721942 182.791 0.764464 183.468 0.764464H191.605C192.263 0.764464 192.714 0.703718 193.025 0.661196C193.33 0.60045 193.5 0.557928 193.579 0.557928C193.726 0.557928 193.744 0.679419 193.744 0.989223C193.744 1.42052 193.683 2.82983 193.683 3.36439C193.665 3.57092 193.622 3.69242 193.5 3.69242C193.336 3.69242 193.293 3.58915 193.275 3.28542L193.256 3.06066C193.214 2.5261 192.659 1.95508 190.831 1.91256L188.24 1.85182V10.2469C188.24 12.13 188.24 13.7459 188.344 14.6267C188.405 15.1977 188.527 15.6472 189.142 15.7323C189.429 15.7748 189.88 15.8173 190.191 15.8173C190.416 15.8173 190.52 15.878 190.52 15.9813C190.52 16.1271 190.355 16.1878 190.13 16.1878C188.777 16.1878 187.478 16.1271 186.905 16.1271C186.43 16.1271 185.138 16.1878 184.315 16.1878C184.047 16.1878 183.907 16.1271 183.907 15.9813C183.907 15.878 183.986 15.8173 184.236 15.8173C184.547 15.8173 184.79 15.7748 184.973 15.7323C185.382 15.6533 185.51 15.1977 185.571 14.6085C185.674 13.7459 185.674 12.13 185.674 10.2469V1.85182L185.662 1.85789Z" fill="#141A25"/>
<path d="M195.012 8.45544C195.012 4.95648 197.334 0.430908 203.496 0.430908C208.61 0.430908 211.797 3.40138 211.797 8.09097C211.797 12.7805 208.512 16.486 203.295 16.486C197.401 16.486 195.018 12.082 195.018 8.46152L195.012 8.45544ZM208.921 8.84422C208.921 4.2579 206.269 1.40892 202.899 1.40892C200.534 1.40892 197.846 2.72103 197.846 7.81761C197.846 12.0759 200.211 15.4534 204.154 15.4534C205.593 15.4534 208.921 14.7548 208.921 8.83814V8.84422Z" fill="#141A25"/>
<path d="M217.247 13.4119C217.289 15.0095 217.557 15.5441 217.966 15.6838C218.313 15.8053 218.703 15.8296 219.032 15.8296C219.258 15.8296 219.38 15.8721 219.38 15.9936C219.38 16.1576 219.197 16.2001 218.904 16.2001C217.57 16.2001 216.747 16.1394 216.357 16.1394C216.174 16.1394 215.205 16.2001 214.138 16.2001C213.87 16.2001 213.687 16.1819 213.687 15.9936C213.687 15.8721 213.809 15.8296 214.016 15.8296C214.284 15.8296 214.65 15.8114 214.943 15.7263C215.479 15.5623 215.558 14.967 215.576 13.1871L215.759 1.06833C215.759 0.661331 215.82 0.369751 216.028 0.369751C216.253 0.369751 216.436 0.637032 216.789 1.00151C217.033 1.26879 220.16 4.60374 223.159 7.57422C224.554 8.9653 227.328 11.9175 227.681 12.2395H227.785L227.578 3.04865C227.559 1.79728 227.37 1.40851 226.877 1.20804C226.572 1.08655 226.078 1.08655 225.786 1.08655C225.542 1.08655 225.457 1.02581 225.457 0.904314C225.457 0.7403 225.682 0.722077 225.993 0.722077C227.06 0.722077 228.047 0.782823 228.48 0.782823C228.705 0.782823 229.485 0.722077 230.491 0.722077C230.759 0.722077 230.966 0.7403 230.966 0.904314C230.966 1.02581 230.845 1.08655 230.595 1.08655C230.387 1.08655 230.223 1.08655 229.979 1.1473C229.406 1.31131 229.242 1.74261 229.217 2.8907L228.992 15.8114C228.992 16.2609 228.912 16.4431 228.724 16.4431C228.498 16.4431 228.248 16.2184 228.023 15.9936C226.73 14.7665 224.097 12.0816 221.964 9.97368C219.727 7.76253 217.442 5.20512 217.076 4.81635H217.015L217.24 13.418L217.247 13.4119Z" fill="#141A25"/>
<path d="M73.4033 34.9771C71.7333 33.5131 71.2883 31.6117 71.2883 29.9595C71.2883 28.8053 71.6479 26.7946 73.2875 25.3002C74.5187 24.1764 76.14 23.4961 78.6816 23.4961C79.7422 23.4961 80.37 23.5629 81.1562 23.6662C81.8023 23.7512 82.3509 23.9031 82.8628 23.9578C83.0518 23.976 83.1188 24.061 83.1188 24.1643C83.1188 24.2979 83.0701 24.5045 83.0335 25.0998C82.9969 25.6586 83.0152 26.5941 82.9847 26.9343C82.9665 27.1894 82.936 27.3231 82.7775 27.3231C82.6434 27.3231 82.6068 27.1894 82.6068 26.9465C82.5886 26.418 82.3691 25.8227 81.9425 25.3792C81.3817 24.7839 80.0469 24.3222 78.4805 24.3222C76.9933 24.3222 76.0242 24.6989 75.2745 25.3792C74.0311 26.5212 73.702 28.1371 73.702 29.7833C73.702 33.829 76.7922 35.8397 79.0778 35.8397C80.5955 35.8397 81.5158 35.6696 82.1985 34.886C82.491 34.564 82.7105 34.072 82.7775 33.7622C82.8263 33.4888 82.8628 33.422 82.9969 33.422C83.1188 33.422 83.1493 33.5435 83.1493 33.6771C83.1493 33.8836 82.9421 35.3598 82.7714 35.9369C82.6861 36.2284 82.619 36.3135 82.3265 36.4289C81.6438 36.7023 80.3456 36.8177 79.2546 36.8177C76.9141 36.8177 74.9515 36.3074 73.4033 34.9649V34.9771Z" fill="#141A25"/>
<path d="M84.9351 30.166C84.9351 27.2563 86.8611 23.4961 91.9809 23.4961C96.2292 23.4961 98.8744 25.9624 98.8744 29.8562C98.8744 33.75 96.1439 36.8298 91.8103 36.8298C86.9099 36.8298 84.9351 33.1729 84.9351 30.1599V30.166ZM96.4913 30.4879C96.4913 26.6792 94.291 24.3162 91.4933 24.3162C89.5307 24.3162 87.2938 25.4035 87.2938 29.6375C87.2938 33.1729 89.2565 35.9794 92.5356 35.9794C93.7302 35.9794 96.4974 35.4023 96.4974 30.4879H96.4913Z" fill="#141A25"/>
<path d="M104.58 31.6604C104.58 33.8351 104.58 35.0135 104.939 35.3173C105.232 35.5724 105.671 35.6939 107.005 35.6939C107.907 35.6939 108.578 35.6757 109.005 35.2201C109.212 35.0014 109.413 34.5215 109.449 34.1995C109.468 34.0477 109.498 33.9444 109.638 33.9444C109.76 33.9444 109.772 34.0295 109.772 34.236C109.772 34.4243 109.651 35.7 109.517 36.192C109.413 36.5686 109.328 36.6537 108.444 36.6537C107.213 36.6537 106.329 36.6172 105.561 36.6051C104.793 36.5686 104.177 36.5565 103.476 36.5565C103.287 36.5565 102.916 36.5565 102.501 36.5747C102.111 36.5747 101.666 36.6112 101.325 36.6112C101.105 36.6112 100.983 36.5626 100.983 36.4411C100.983 36.356 101.05 36.3074 101.258 36.3074C101.514 36.3074 101.721 36.271 101.873 36.2406C102.215 36.1738 102.3 35.7972 102.367 35.3051C102.452 34.5883 102.452 33.2458 102.452 31.6847V28.6899C102.452 26.1021 102.452 25.6283 102.416 25.0816C102.379 24.5045 102.245 24.2311 101.684 24.1097C101.55 24.0732 101.343 24.0611 101.124 24.0611C100.935 24.0611 100.831 24.0246 100.831 23.9092C100.831 23.7938 100.953 23.7573 101.209 23.7573C102.013 23.7573 103.086 23.8059 103.549 23.8059C103.958 23.8059 105.207 23.7573 105.872 23.7573C106.109 23.7573 106.231 23.7938 106.231 23.9092C106.231 24.0246 106.128 24.0611 105.927 24.0611C105.738 24.0611 105.463 24.0793 105.262 24.1097C104.799 24.1947 104.665 24.4863 104.628 25.0816C104.592 25.6283 104.592 26.1021 104.592 28.6899V31.6847L104.58 31.6604Z" fill="#141A25"/>
<path d="M114.904 31.6604C114.904 33.8351 114.904 35.0135 115.264 35.3173C115.557 35.5724 115.995 35.6939 117.33 35.6939C118.232 35.6939 118.903 35.6757 119.329 35.2201C119.537 35.0014 119.738 34.5215 119.774 34.1995C119.793 34.0477 119.823 33.9444 119.963 33.9444C120.085 33.9444 120.097 34.0295 120.097 34.236C120.097 34.4243 119.976 35.7 119.841 36.192C119.738 36.5686 119.653 36.6537 118.769 36.6537C117.538 36.6537 116.654 36.6172 115.886 36.6051C115.118 36.5686 114.502 36.5565 113.801 36.5565C113.612 36.5565 113.241 36.5565 112.826 36.5747C112.436 36.5747 111.991 36.6112 111.65 36.6112C111.43 36.6112 111.308 36.5626 111.308 36.4411C111.308 36.356 111.375 36.3074 111.583 36.3074C111.839 36.3074 112.046 36.271 112.198 36.2406C112.54 36.1738 112.625 35.7972 112.692 35.3051C112.777 34.5883 112.777 33.2458 112.777 31.6847V28.6899C112.777 26.1021 112.777 25.6283 112.741 25.0816C112.704 24.5045 112.57 24.2311 112.009 24.1097C111.875 24.0732 111.668 24.0611 111.449 24.0611C111.26 24.0611 111.156 24.0246 111.156 23.9092C111.156 23.7938 111.278 23.7573 111.534 23.7573C112.338 23.7573 113.411 23.8059 113.874 23.8059C114.283 23.8059 115.532 23.7573 116.197 23.7573C116.434 23.7573 116.556 23.7938 116.556 23.9092C116.556 24.0246 116.453 24.0611 116.251 24.0611C116.063 24.0611 115.788 24.0793 115.587 24.1097C115.124 24.1947 114.99 24.4863 114.953 25.0816C114.917 25.6283 114.917 26.1021 114.917 28.6899V31.6847L114.904 31.6604Z" fill="#141A25"/>
<path d="M123.096 28.6656C123.096 26.0778 123.096 25.604 123.059 25.0573C123.023 24.4802 122.889 24.2068 122.328 24.0853C122.194 24.0489 121.901 24.0367 121.664 24.0367C121.475 24.0367 121.371 24.0003 121.371 23.8849C121.371 23.7695 121.493 23.733 121.749 23.733C122.212 23.733 122.706 23.7512 123.133 23.7512C123.578 23.7695 123.968 23.7877 124.205 23.7877C124.754 23.7877 128.149 23.7877 128.472 23.7695C128.795 23.733 129.069 23.7026 129.203 23.6662C129.289 23.648 129.392 23.5994 129.478 23.5994C129.563 23.5994 129.581 23.6662 129.581 23.7512C129.581 23.8727 129.496 24.0732 129.447 24.8568C129.429 25.0269 129.398 25.7741 129.362 25.9806C129.343 26.0656 129.313 26.1689 129.191 26.1689C129.069 26.1689 129.039 26.0839 129.039 25.932C129.039 25.8105 129.02 25.525 128.935 25.3185C128.813 25.0147 128.642 24.8082 127.789 24.7049C127.497 24.6685 125.705 24.6381 125.363 24.6381C125.278 24.6381 125.241 24.6867 125.241 24.8082V29.109C125.241 29.2305 125.26 29.2973 125.363 29.2973C125.741 29.2973 127.704 29.2973 128.094 29.2609C128.502 29.2244 128.758 29.1758 128.911 29.0058C129.033 28.8721 129.1 28.7871 129.185 28.7871C129.252 28.7871 129.307 28.8235 129.307 28.9207C129.307 29.0179 129.24 29.2973 129.173 30.1599C129.154 30.5001 129.106 31.1805 129.106 31.3019C129.106 31.4356 129.106 31.6239 128.953 31.6239C128.831 31.6239 128.801 31.5571 128.801 31.472C128.783 31.3019 128.783 31.0833 128.734 30.8585C128.649 30.5183 128.411 30.2632 127.777 30.1964C127.454 30.1599 125.766 30.1478 125.351 30.1478C125.266 30.1478 125.248 30.2146 125.248 30.3179V31.6603C125.248 32.2374 125.229 33.8047 125.248 34.2967C125.284 35.4691 125.552 35.7242 127.295 35.7242C127.74 35.7242 128.454 35.7242 128.898 35.5177C129.343 35.3112 129.545 34.9588 129.666 34.2603C129.703 34.072 129.734 34.0051 129.855 34.0051C129.989 34.0051 129.989 34.1388 129.989 34.3089C129.989 34.6976 129.855 35.8579 129.77 36.1981C129.648 36.6415 129.496 36.6415 128.85 36.6415C127.57 36.6415 126.631 36.6051 125.9 36.5929C125.168 36.5565 124.638 36.5443 124.126 36.5443C123.937 36.5443 123.565 36.5443 123.151 36.5625C122.761 36.5625 122.316 36.599 121.975 36.599C121.755 36.599 121.633 36.5504 121.633 36.4289C121.633 36.3439 121.7 36.2953 121.907 36.2953C122.163 36.2953 122.371 36.2588 122.523 36.2284C122.864 36.1616 122.95 35.785 123.017 35.2929C123.102 34.5761 123.102 33.2337 123.102 31.6725V28.6777L123.096 28.6656Z" fill="#141A25"/>
<path d="M144.24 35.457C144.24 35.9186 144.222 35.949 144.021 36.0705C142.911 36.6476 141.241 36.8359 139.907 36.8359C135.725 36.8359 132.02 34.8617 132.02 30.166C132.02 27.4446 133.434 25.5372 134.988 24.6017C136.627 23.6176 138.145 23.4961 139.577 23.4961C140.754 23.4961 142.259 23.7026 142.601 23.7694C142.96 23.8363 143.557 23.9395 143.948 23.9578C144.155 23.976 144.185 24.0428 144.185 24.1643C144.185 24.3526 144.063 24.8264 144.063 26.9525C144.063 27.2259 144.015 27.3109 143.874 27.3109C143.753 27.3109 143.722 27.2259 143.704 27.0922C143.655 26.7035 143.57 26.1568 143.125 25.6829C142.613 25.1362 141.247 24.3587 139.321 24.3587C138.383 24.3587 137.139 24.4255 135.945 25.4157C134.988 26.2175 134.372 27.4932 134.372 29.5828C134.372 33.2397 136.713 35.9794 140.309 35.9794C140.754 35.9794 141.351 35.9794 141.759 35.7911C142.015 35.6696 142.082 35.4509 142.082 35.1593V33.5617C142.082 32.7112 142.082 32.0673 142.064 31.5571C142.046 30.98 141.894 30.7066 141.333 30.5851C141.199 30.5487 140.906 30.5365 140.668 30.5365C140.516 30.5365 140.412 30.5001 140.412 30.4029C140.412 30.2693 140.534 30.2328 140.772 30.2328C141.662 30.2328 142.735 30.2814 143.247 30.2814C143.759 30.2814 144.679 30.2328 145.246 30.2328C145.465 30.2328 145.587 30.2693 145.587 30.4029C145.587 30.5062 145.484 30.5365 145.368 30.5365C145.234 30.5365 145.112 30.5548 144.904 30.5851C144.441 30.6702 144.271 30.9618 144.258 31.5571C144.24 32.0673 144.24 32.7477 144.24 33.5981V35.4691V35.457Z" fill="#141A25"/>
<path d="M149.006 28.6656C149.006 26.0778 149.006 25.604 148.97 25.0573C148.933 24.4802 148.799 24.2068 148.238 24.0853C148.104 24.0489 147.812 24.0367 147.574 24.0367C147.385 24.0367 147.281 24.0003 147.281 23.8849C147.281 23.7695 147.403 23.733 147.659 23.733C148.123 23.733 148.616 23.7512 149.043 23.7512C149.488 23.7695 149.878 23.7877 150.116 23.7877C150.664 23.7877 154.059 23.7877 154.382 23.7695C154.705 23.733 154.98 23.7026 155.114 23.6662C155.199 23.648 155.303 23.5994 155.388 23.5994C155.473 23.5994 155.492 23.6662 155.492 23.7512C155.492 23.8727 155.406 24.0732 155.357 24.8568C155.339 25.0269 155.309 25.7741 155.272 25.9806C155.254 26.0656 155.223 26.1689 155.101 26.1689C154.98 26.1689 154.949 26.0839 154.949 25.932C154.949 25.8105 154.931 25.525 154.845 25.3185C154.724 25.0147 154.553 24.8082 153.7 24.7049C153.407 24.6685 151.615 24.6381 151.274 24.6381C151.188 24.6381 151.152 24.6867 151.152 24.8082V29.109C151.152 29.2305 151.17 29.2973 151.274 29.2973C151.652 29.2973 153.614 29.2973 154.004 29.2609C154.413 29.2244 154.669 29.1758 154.821 29.0058C154.943 28.8721 155.01 28.7871 155.095 28.7871C155.162 28.7871 155.217 28.8235 155.217 28.9207C155.217 29.0179 155.15 29.2973 155.083 30.1599C155.065 30.5001 155.016 31.1805 155.016 31.3019C155.016 31.4356 155.016 31.6239 154.864 31.6239C154.742 31.6239 154.711 31.5571 154.711 31.472C154.693 31.3019 154.693 31.0833 154.644 30.8585C154.559 30.5183 154.321 30.2632 153.687 30.1964C153.364 30.1599 151.676 30.1478 151.262 30.1478C151.176 30.1478 151.158 30.2146 151.158 30.3179V31.6603C151.158 32.2374 151.14 33.8047 151.158 34.2967C151.195 35.4691 151.463 35.7242 153.206 35.7242C153.651 35.7242 154.364 35.7242 154.809 35.5177C155.254 35.3112 155.455 34.9588 155.577 34.2603C155.613 34.072 155.644 34.0051 155.766 34.0051C155.9 34.0051 155.9 34.1388 155.9 34.3089C155.9 34.6976 155.766 35.8579 155.68 36.1981C155.559 36.6415 155.406 36.6415 154.76 36.6415C153.48 36.6415 152.542 36.6051 151.81 36.5929C151.079 36.5565 150.548 36.5443 150.036 36.5443C149.848 36.5443 149.476 36.5443 149.061 36.5625C148.671 36.5625 148.226 36.599 147.885 36.599C147.665 36.599 147.544 36.5504 147.544 36.4289C147.544 36.3439 147.611 36.2953 147.818 36.2953C148.074 36.2953 148.281 36.2588 148.433 36.2284C148.775 36.1616 148.86 35.785 148.927 35.2929C149.012 34.5761 149.012 33.2337 149.012 31.6725V28.6777L149.006 28.6656Z" fill="#141A25"/>
<path d="M159.1 23.7573C159.459 23.7573 159.813 23.8484 160.16 24.0368C160.508 24.2251 160.776 24.4863 160.965 24.8325C161.16 25.1788 161.251 25.5372 161.251 25.9138C161.251 26.2904 161.154 26.6428 160.965 26.9829C160.776 27.3231 160.508 27.5904 160.166 27.7787C159.825 27.967 159.465 28.0642 159.094 28.0642C158.722 28.0642 158.362 27.9731 158.021 27.7787C157.68 27.5904 157.411 27.3231 157.223 26.9829C157.034 26.6428 156.936 26.2844 156.936 25.9138C156.936 25.5433 157.034 25.1788 157.229 24.8325C157.424 24.4863 157.692 24.2251 158.039 24.0368C158.387 23.8545 158.734 23.7573 159.1 23.7573ZM159.1 24.1157C158.795 24.1157 158.502 24.1947 158.216 24.3466C157.93 24.4984 157.704 24.7232 157.539 25.0087C157.381 25.2942 157.296 25.5979 157.296 25.9077C157.296 26.2175 157.375 26.5152 157.533 26.8007C157.692 27.0862 157.911 27.3049 158.204 27.4628C158.49 27.6208 158.789 27.6997 159.1 27.6997C159.411 27.6997 159.709 27.6208 159.996 27.4628C160.282 27.3049 160.502 27.0801 160.66 26.8007C160.819 26.5152 160.898 26.2175 160.898 25.9077C160.898 25.5979 160.819 25.2942 160.654 25.0087C160.496 24.7232 160.27 24.4984 159.984 24.3466C159.697 24.1886 159.398 24.1157 159.1 24.1157ZM158.155 27.0983V24.7839H158.953C159.228 24.7839 159.423 24.8082 159.545 24.8508C159.667 24.8933 159.764 24.9662 159.837 25.0755C159.91 25.1849 159.947 25.2942 159.947 25.4157C159.947 25.5858 159.886 25.7316 159.764 25.8591C159.642 25.9867 159.484 26.0535 159.283 26.0717C159.362 26.1082 159.429 26.1446 159.478 26.1932C159.569 26.2844 159.685 26.4362 159.819 26.6488L160.105 27.1044H159.648L159.441 26.7399C159.283 26.4544 159.149 26.2722 159.051 26.1993C158.984 26.1446 158.88 26.1203 158.752 26.1203H158.533V27.1044H158.155V27.0983ZM158.533 25.7984H158.99C159.209 25.7984 159.356 25.768 159.435 25.7012C159.514 25.6404 159.557 25.5493 159.557 25.4461C159.557 25.3792 159.539 25.3185 159.502 25.2638C159.465 25.2091 159.411 25.1666 159.344 25.1423C159.277 25.118 159.149 25.0998 158.966 25.0998H158.539V25.7984H158.533Z" fill="#141A25"/>
</svg>
