<svg width="232" height="33" viewBox="0 0 232 33" fill="none" xmlns="http://www.w3.org/2000/svg">
<path d="M133.601 0H130.09C128.783 0 128.783 1.30661 128.783 1.30661V30.7871C128.783 30.7871 128.783 32.0937 130.09 32.0937H133.601C134.908 32.0937 134.908 30.7871 134.908 30.7871V1.30661C134.908 1.30661 134.908 0 133.601 0Z" fill="#141A25"/>
<path d="M149.69 8.41137C143.892 8.41137 140.136 10.6163 138.257 15.0261C138.094 15.5161 138.584 16.0061 139.074 16.0061H142.994C143.729 16.0061 144.382 15.4344 144.545 15.1078C145.607 13.3928 147.24 12.7395 150.343 12.7395C153.447 12.7395 154.672 13.4745 155.815 15.1078C156.55 16.0877 155.57 17.1494 154.998 17.231C146.669 17.6393 145.28 17.966 142.994 18.2926C139.727 18.7826 137.277 21.9675 137.277 25.234C137.277 28.5006 138.257 29.5622 140.626 31.1955C144.627 34.0537 151.977 33.3187 155.325 30.3788C155.733 30.0522 156.223 30.3788 156.305 30.7055C156.632 31.7671 157.122 32.0121 158.102 32.0121C158.591 32.0121 160.225 32.0121 160.225 32.0121C161.531 32.0121 161.531 30.7055 161.531 30.7055V17.3944C161.531 10.208 154.753 8.24805 149.609 8.24805L149.69 8.41137ZM144.219 27.2756C143.565 26.8673 143.075 26.0507 143.075 25.3157C143.075 24.2541 143.402 23.4374 144.382 22.9475C147.322 21.3959 154.427 21.5592 155.08 21.6408C155.407 21.6408 155.897 21.9675 155.897 22.3758C155.897 28.5822 147.404 29.3989 144.137 27.2756H144.219Z" fill="#141A25"/>
<path d="M180.885 8.41138C177.129 8.41138 174.025 9.39134 171.575 11.3513C171.33 11.5146 170.759 11.6779 170.759 11.1879V9.88132C170.759 9.88132 170.759 8.5747 169.452 8.5747H166.431C166.431 8.5747 165.124 8.57471 165.124 9.88132V30.8688C165.124 32.1754 166.431 32.1754 166.431 32.1754H169.452C170.759 32.1754 170.759 30.8688 170.759 30.8688V20.6609C170.759 17.8027 172.637 12.9845 179.007 12.9845C185.377 12.9845 184.233 16.0877 184.233 17.8843V30.8688C184.233 32.1754 185.54 32.1754 185.54 32.1754H188.561C188.561 32.1754 189.868 32.1754 189.868 30.8688V17.8843C189.868 12.0862 184.723 8.49304 180.967 8.49304L180.885 8.41138Z" fill="#141A25"/>
<path d="M112.125 8.41138C101.835 8.41138 97.5068 15.2711 97.5068 20.6609C97.5068 26.0507 101.835 32.9104 112.206 32.9104C122.578 32.9104 126.742 26.2957 126.742 20.6609C126.742 15.2711 122.414 8.41138 112.125 8.41138ZM112.288 28.5006C106.326 28.5006 103.55 24.0908 103.55 20.6609C103.55 17.231 106.408 12.8212 112.206 12.8212C118.004 12.8212 120.863 17.3127 120.863 20.6609C120.863 24.0091 118.004 28.5006 112.288 28.5006Z" fill="#141A25"/>
<path d="M218.286 0H215.265C215.265 0 213.958 -1.26555e-06 213.958 1.30661V10.6162C213.958 11.2695 213.55 11.5145 213.223 11.2696C204.975 4.98147 192.317 11.2696 192.399 20.6608C192.399 31.1138 204.812 36.7485 213.223 30.1338C213.631 29.8071 213.958 30.1338 213.958 30.7871C213.958 30.8688 213.958 32.1754 215.265 32.1754H218.286C218.286 32.1754 219.593 32.1754 219.593 30.8688V1.38828C219.593 0.081664 218.286 0.0816622 218.286 0.0816622V0ZM205.873 28.5822C201.463 28.5822 198.115 25.1523 198.115 20.5792C198.115 16.0877 201.79 12.9845 205.873 12.9845C209.956 12.9845 213.795 16.006 213.795 20.6608C213.795 25.479 210.283 28.5822 205.873 28.5822Z" fill="#141A25"/>
<path d="M94.4027 20.8242C93.831 18.7009 93.831 17.6393 92.1978 16.4143C92.1161 16.4143 92.1978 16.0877 92.4427 16.006C94.7293 14.3728 96.4443 11.7595 96.4443 8.81965C96.4443 2.93988 91.6261 0 87.3796 0H68.6787C68.6787 0 67.3721 -1.26555e-06 67.3721 1.30661V30.7871C67.3721 32.0937 68.6787 32.0937 68.6787 32.0937H71.5369C71.5369 32.0937 72.8435 32.0937 72.8435 30.7871V18.9459C72.8435 17.6393 74.1501 17.6393 74.1501 17.6393H83.7048C85.4197 17.6393 86.808 18.0476 87.4613 18.9459C90.2378 22.7841 89.3395 26.7039 90.6462 30.7871C90.8911 31.5221 91.5444 32.0937 92.7694 32.0937H96.5259C96.8526 32.0937 97.0976 31.6037 97.0159 31.3588C95.4643 28.0922 95.3826 24.744 94.321 20.8242H94.4027ZM85.583 13.3928H74.2318C74.2318 13.3928 72.9252 13.3928 72.9252 12.0862V5.47145C72.9252 5.47145 72.9252 4.16483 74.2318 4.16483H85.583C85.583 4.16483 90.5645 4.16483 90.5645 8.73799C90.5645 13.3111 85.583 13.3111 85.583 13.3111V13.3928Z" fill="#141A25"/>
<path d="M61.3292 24.5808H0V32.0938H61.3292V24.5808Z" fill="#141A25"/>
<path d="M0 21.8041H61.3292V0H0V21.8041ZM2.61323 2.4499H58.7977V19.4359H2.61323V2.4499Z" fill="#141A25"/>
<path d="M229.719 3.10337C229.719 2.12341 229.147 1.71509 228.004 1.71509H226.207V6.53323H226.942V4.40998H227.759L229.065 6.53323H229.882L228.494 4.40998C229.229 4.32832 229.719 3.92 229.719 3.10337ZM226.86 3.92V2.45006H227.84C228.33 2.45006 228.902 2.53172 228.902 3.18503C228.902 3.83834 228.33 4.00166 227.759 4.00166H226.86V3.92Z" fill="#141A25"/>
<path d="M227.759 0C225.473 0 223.513 1.79659 223.513 4.16483C223.513 6.53307 225.473 8.32967 227.759 8.32967C230.046 8.32967 232.006 6.53307 232.006 4.16483C232.006 1.79659 230.046 0 227.759 0ZM227.759 7.67636C225.881 7.67636 224.329 6.20642 224.329 4.16483C224.329 2.12325 225.799 0.653307 227.759 0.653307C229.719 0.653307 231.107 2.12325 231.107 4.16483C231.107 6.20642 229.637 7.67636 227.759 7.67636Z" fill="#141A25"/>
</svg>
