<svg width="260" height="25" viewBox="0 0 260 25" fill="none" xmlns="http://www.w3.org/2000/svg">
<path d="M128.821 24.0029H130.207C130.038 21.7762 129.768 17.6597 129.768 14.353V5.41197H129.903L138.657 21.54H139.063L147.614 6.01927H147.75V24.0029H150.555V0.418335H150.183L140.009 18.7731H139.874L129.632 0.418335H129.261V14.3193C129.227 17.626 128.956 21.7762 128.821 24.0029ZM114.797 24.509C120.678 24.509 123.349 21.0336 123.349 14.4542V10.1691C123.349 6.82899 123.619 3.31985 123.755 1.09311H122.403C122.538 3.31985 122.808 6.82899 122.808 10.1691V14.4542C122.808 20.6625 120.273 23.8005 115.608 23.8005C110.234 23.8005 108.612 20.8649 108.612 15.6351V1.09311H105.806V14.8254C105.806 20.6625 108.24 24.509 114.797 24.509ZM99.5669 24.6777H99.9387V10.1691C99.9725 6.82899 100.243 3.31985 100.378 1.09311H99.0262C99.1613 3.31985 99.4317 6.82899 99.4317 10.1691V20.5275H99.3303L83.3087 0.418335H82.9369V14.8928C82.9031 18.2333 82.6328 21.7762 82.4976 24.0029H83.8833C83.7143 21.7762 83.4439 18.267 83.4439 14.9266V4.46696H83.5791L99.5669 24.6777ZM74.0377 24.0029H76.8433V1.09311H74.0377V24.0029ZM52.2699 1.09311V2.40891C53.9602 1.97031 56.6303 1.66666 60.1457 1.59918V24.0029H62.951V1.59918C66.4664 1.66666 69.1027 1.97031 70.793 2.40891V1.09311H52.2699ZM38.1007 18.0983C39.2499 14.5892 41.0078 9.7305 43.3399 4.09583H43.4751L49.3564 18.0983H38.1007ZM51.824 24.0029H54.6631L44.6918 0.418335H44.2863L42.7991 4.09583C40.0611 10.9117 37.3572 18.1995 34.9571 24.0029H36.4446C36.5122 23.3956 37.0192 21.4725 37.9656 18.5707H49.5592L51.824 24.0029ZM23.2829 23.5306H23.1815V1.09311H20.3759V24.0029H32.8824V22.6871C30.4486 23.3619 28.6235 23.5306 23.2829 23.5306ZM3.36081 14.2518V1.56544H7.99123C12.6896 1.56544 13.8053 4.73686 13.8053 7.73993C13.8053 11.2153 12.4192 14.2518 7.45045 14.2518H3.36081ZM0.555176 24.0029H3.36081V14.7241H7.88983C13.5684 14.6567 16.7458 12.3287 16.7458 7.70619C16.7458 3.79219 13.8053 1.09311 9.07313 1.09311H0.555176V24.0029Z" fill="#141A25"/>
<path d="M258.871 24.6777H259.243V10.1691C259.277 6.82899 259.547 3.31984 259.682 1.0931H258.331C258.466 3.31984 258.736 6.82899 258.736 10.1691V20.5275H258.635L242.613 0.418335H242.241V14.8928C242.208 18.2333 241.937 21.7762 241.802 24.0029H243.188C243.019 21.7762 242.748 18.267 242.748 14.9266V4.46695H242.884L258.871 24.6777ZM224.236 12.2612V1.56544H228.832C233.227 1.56544 234.41 3.75845 234.41 6.76151C234.41 10.0679 232.922 12.2612 228.393 12.2612H224.236ZM238.162 24.0029L232.314 13.1384H229.745L229.475 12.6998C234.274 12.4299 237.215 10.439 237.215 6.69404C237.215 2.84751 234.917 1.0931 229.475 1.0931H221.43V24.0029H224.236V12.7336H229.001L235.153 24.0029H238.162ZM205.757 24.0366C200.18 24.0366 197.171 19.4141 197.171 12.5311C197.171 5.81684 200.146 1.05937 205.757 1.05937C211.334 1.05937 214.376 5.71562 214.376 12.5311C214.376 19.4141 211.368 24.0366 205.757 24.0366ZM205.757 24.509C212.787 24.509 217.486 19.5153 217.486 12.5311C217.486 5.64814 212.72 0.587026 205.757 0.587026C198.827 0.587026 194.163 5.64814 194.163 12.5311C194.163 19.5491 198.861 24.509 205.757 24.509ZM177.361 23.5306V12.16H182.464C185.98 12.16 188.346 14.1168 188.346 17.9296C188.346 21.675 186.115 23.5306 182.464 23.5306H177.361ZM177.361 11.6877V1.56544H181.788C185.405 1.56544 187.095 3.28611 187.095 6.59282C187.095 10.0341 184.56 11.6877 181.788 11.6877H177.361ZM174.555 24.0029H183.546C188.245 24.0029 191.219 21.8099 191.219 18.0646C191.219 14.488 189.191 12.2612 184.425 11.8564V11.7552C187.737 11.2153 189.664 9.32564 189.664 6.42413C189.664 2.91498 186.994 1.0931 182.059 1.0931H174.555V24.0029Z" fill="#141A25"/>
</svg>
