<svg width="97" height="39" viewBox="0 0 97 39" fill="none" xmlns="http://www.w3.org/2000/svg">
<path d="M94.1555 15.7936H95.2411V9.46841C95.2411 9.46841 92.0465 9.47043 92.0465 9.46841C91.4698 9.23664 90.7371 9.08586 90.057 9.09371C90.3448 8.28823 91.6796 5.25318 91.8295 4.83608H86.9863C86.9863 4.83406 85.9521 7.73785 85.9086 7.8433C85.9185 7.84913 85.586 6.85047 85.586 6.85047C84.4264 3.88363 82.2426 1.90065 78.8782 1.171L78.8535 1.16517C76.1569 0.647547 72.7909 0.897943 69.6111 2.95766L69.4944 3.0326L69.3831 2.95182C67.6328 1.69378 65.3003 0.982755 63.1311 0.983877C61.6381 0.983877 60.0981 1.38034 58.6782 2.12659L58.3825 2.2823V1.84456H44.7274V9.27792L44.4997 9.25234C44.2817 9.22673 44.0624 9.21519 43.8429 9.21779C43.2697 9.22474 42.7204 9.32818 42.2091 9.52338L41.9508 9.62098C41.9508 9.62098 41.9158 8.90322 41.8508 8.41208C41.3109 4.42279 38.0385 0.994422 32.574 0.976697C29.6076 0.966825 27.6883 1.68571 25.6526 3.03439L25.5339 3.11337L25.4195 3.02945C23.6739 1.73282 21.3479 0.969742 19.1174 1.00429C17.6453 1.02606 16.1086 1.38303 14.7171 2.1037L14.4214 2.25762V1.84748H0.656738V10.5716C1.57374 10.6811 2.79924 10.8034 2.79924 11.8584C2.80037 19.4259 2.80036 22.8494 2.80036 25.1763C2.80036 27.6758 2.80037 28.0188 2.79924 28.0684C2.79722 28.7287 2.16809 28.9509 1.69445 29.0592C1.38235 29.1301 0.917905 29.1676 0.658758 29.1835V38.1392C2.48333 38.1404 87.8956 38.1621 88.2899 38.1621V29.1995C87.7615 29.1808 87.3529 29.1541 86.9528 29.0525C86.4126 28.9183 86.1285 28.5697 86.1285 28.0469C86.1285 28.0283 86.1285 28.0096 86.1303 27.9867V24.531H88.7413C89.4195 24.7686 89.836 24.8572 90.4649 24.875C91.674 24.9095 92.6747 24.8047 93.6121 24.2763C95.0025 23.4955 95.8783 22.1693 96.0811 20.5435C96.1145 20.2859 96.1317 20.0263 96.1325 19.7665C96.1313 18.1719 95.4659 16.8407 94.1555 15.7936ZM16.3992 12.2598C16.3992 12.2598 16.3972 29 16.396 29.004C16.2601 28.9912 16.1156 28.9796 16.1156 28.9796C15.4198 28.9273 14.7967 28.8207 14.7967 28.0852L14.7828 12.2934C14.7828 12.0213 14.8342 11.5342 15.1817 11.332C15.4151 11.1979 15.7483 11.2019 15.9904 11.3419C16.3287 11.5362 16.3992 11.9484 16.3992 12.2598ZM28.694 28.7005C28.5506 28.5605 28.4848 28.3446 28.4848 28.0222L28.4819 12.3033C28.4819 12.0303 28.5333 11.542 28.8797 11.3419C29.0947 11.2176 29.4407 11.1525 29.7115 11.3785C30.0496 11.6605 30.0974 12.0855 30.0974 12.5026L30.0945 28.9639H30.0821C29.4021 28.9764 28.932 28.9361 28.694 28.7005ZM60.3444 28.9834C60.3298 28.9823 59.4541 28.8966 59.4541 28.8966C59.0271 28.8304 58.7588 28.5228 58.7588 28.1106L58.7451 12.5279C58.7451 11.6513 59.1727 11.4669 59.534 11.4669C59.7824 11.4669 60.3601 11.5674 60.3601 12.4934C60.3601 12.4934 60.3583 28.5928 60.3561 28.9843L60.3444 28.9834ZM46.867 27.8218C46.86 28.5198 46.5585 28.7509 45.9668 28.9569C45.5053 29.1167 44.9432 29.2073 44.4256 29.2073C44.0844 29.2073 43.4967 29.1689 43.0152 29.083C42.499 28.9971 41.9448 28.667 41.9335 27.9964V24.8451L42.1682 24.8826C42.3806 24.9174 42.5951 24.9382 42.8102 24.9447C43.8995 24.9753 44.9699 24.645 45.9087 23.9865L46.0705 23.875L46.1887 24.0316C46.2094 24.0632 46.3868 24.2743 46.819 24.7751L46.8672 24.8321C46.867 24.8314 46.867 27.82 46.867 27.8218ZM74.0579 12.5023L74.0538 28.9378V28.9497C73.9574 28.9509 73.8607 28.9509 73.8607 28.9509C73.3953 28.9549 72.9131 28.9587 72.6538 28.7025C72.5158 28.5665 72.4469 28.3583 72.4469 28.0852L72.4438 12.5389C72.4438 11.6614 72.8716 11.4779 73.2317 11.4779C73.4801 11.477 74.0579 11.5766 74.0579 12.5023Z" fill="white"/>
<path d="M42.7809 29.9644C42.2415 29.8915 40.9873 29.6202 40.9873 28.6884V24.6529L40.6007 24.4427C39.988 24.1055 39.482 23.6538 39.0965 23.0998C38.5215 22.2717 38.2179 21.3062 38.2179 20.3067C38.2179 19.0109 38.7914 17.6434 39.8769 16.3546L40.1885 15.984L39.7221 15.0365C39.5071 14.5031 39.3972 13.9519 39.3972 13.3956C39.3972 12.5783 39.6384 11.7856 40.0918 11.1033C40.2644 10.845 40.4784 10.5975 40.7268 10.3637C40.8289 10.283 40.8733 10.2098 40.9936 10.1311C41.0158 10.1154 40.9936 9.21025 40.8693 8.47454C40.5641 6.66814 39.7737 5.2425 38.3815 3.98715C36.9655 2.71026 34.9482 2.03491 32.5474 2.03491C29.3477 2.03491 27.4414 2.94002 25.528 4.40829C23.812 2.95393 21.722 2.13162 19.4065 2.06071C17.4256 1.99856 15.0623 2.89784 13.4729 4.20928V2.89896H1.7085L1.70962 9.70139L2.3466 9.79316C3.85212 10.0072 3.85212 10.8167 3.85212 11.0828V28.6712C3.85212 28.9355 3.85212 29.7371 2.3475 29.9501L1.71051 30.0407V37.192L15.684 37.1961L15.682 30.0504L14.8514 29.9438C13.782 29.7567 13.6589 29.1273 13.6589 28.6721L13.645 12.2895C13.645 10.7721 14.6124 10.0918 15.5712 10.0918C16.5162 10.0918 17.5328 10.7692 17.5328 12.2552L17.5308 37.206L29.373 37.2048L29.3701 30.0593L28.5404 29.9539C27.4711 29.7654 27.3467 29.1363 27.3467 28.6817L27.3438 12.3005C27.3438 11.629 27.5375 11.0817 27.9048 10.7189C28.2362 10.3907 28.6995 10.2132 29.2108 10.217C29.796 10.2071 30.262 10.3776 30.6149 10.7259C31.0192 11.1232 31.2331 11.7364 31.2331 12.4986L31.2277 37.2147H43.6409V30.0501L42.7809 29.9644Z" fill="#141A25"/>
<path d="M25.6596 5.2415C27.6505 3.65297 29.4219 2.7804 32.5473 2.7804C34.7343 2.7804 36.6013 3.38372 37.8835 4.54147C39.1205 5.65569 39.8501 6.90386 40.136 8.60076C40.3287 9.7455 40.241 9.80361 40.243 9.80069C39.9522 10.0688 39.6908 10.3666 39.4734 10.6939C38.9383 11.494 38.6529 12.435 38.6536 13.3976C38.6536 14.0494 38.7799 14.6931 39.0314 15.3143C39.0949 15.4701 39.1842 15.6525 39.3065 15.8784C38.1099 17.3002 37.4736 18.8293 37.4736 20.3095C37.4736 21.4592 37.8241 22.5705 38.4842 23.5238C38.9417 24.1814 39.5344 24.7069 40.2432 25.0955V28.6915C40.2432 29.7563 41.3702 30.4956 42.8955 30.703V36.4758H31.9671L31.9721 12.5012C31.9721 11.536 31.6813 10.7383 31.1329 10.1978C30.6389 9.71476 29.9767 9.46414 29.2157 9.47715C28.5069 9.4702 27.8526 9.72553 27.3808 10.1929C26.8701 10.6986 26.6002 11.4283 26.6002 12.302L26.6038 28.6834C26.6038 29.7817 27.4636 30.482 28.6272 30.6859L28.6292 36.465C28.2466 36.4659 18.6548 36.4668 18.2732 36.4668L18.2752 12.2578C18.2752 10.3499 16.9151 9.35308 15.5711 9.35308C14.2857 9.35308 12.9024 10.273 12.9024 12.2932L12.9166 28.6747C12.9166 29.7711 13.7779 30.4743 14.9399 30.6763C14.9408 31.0184 14.942 36.0578 14.942 36.4562L2.45221 36.4542V30.6881C3.83164 30.4929 4.59472 29.786 4.59472 28.6747V11.0863C4.59472 9.96919 3.83052 9.25839 2.45109 9.06117L2.4502 3.64399H12.7308V6.07055L13.0902 5.62293C14.3416 4.04247 17.095 2.73597 19.3834 2.80485C21.735 2.87777 23.7716 3.72679 25.3841 5.23141L25.5154 5.36356L25.6596 5.2415Z" fill="#141A25"/>
<path d="M86.4692 29.9457C84.9648 29.7345 84.9648 28.9479 84.9648 28.6892V9.86862C85.0139 6.79027 83.0085 3.20327 79.0843 2.32576C75.4803 1.52521 72.1082 2.27147 69.5004 4.37179C67.8587 2.93224 65.5225 2.04485 63.2696 2.04485C61.1864 2.04575 59.0358 2.87121 57.4513 4.20127V2.88108H45.6528L45.6508 9.46947L46.0511 9.68441C46.8162 10.0937 47.327 10.5857 47.7096 11.2808C48.0304 11.8716 48.1985 12.5332 48.1987 13.2054C48.1987 13.6196 48.1256 14.0563 47.9779 14.503L47.6483 15.4998L51.492 15.5057C51.4898 16.7155 51.486 23.4194 51.4842 24.6292L47.7935 24.6321V28.6719C47.7935 29.5268 46.9093 29.8283 46.1675 29.9317L45.2979 30.0224V37.2114L59.664 37.2146L59.6609 30.0354L58.8148 29.925C57.7589 29.7408 57.6384 29.1224 57.6384 28.6728L57.6247 12.5261C57.6247 11.0205 58.581 10.347 59.5305 10.347C60.4661 10.347 61.474 11.0185 61.474 12.4906L61.4713 37.2264L73.3514 37.2242L73.3474 30.0444L72.5015 29.934C71.4463 29.7504 71.324 29.1312 71.324 28.6827L71.3222 12.5359C71.3222 11.0304 72.2796 10.3568 73.2289 10.3568C74.1648 10.3568 75.1733 11.0273 75.1733 12.5005L75.1677 37.2361H87.2323V30.0394L86.4692 29.9457Z" fill="#141A25"/>
<path d="M69.5969 5.23952C72.2945 2.84954 75.6944 2.35256 78.9177 3.0683C82.5215 3.87378 84.2449 7.16798 84.2038 9.86781V28.6886C84.2038 29.7988 85.0811 30.5028 86.4715 30.6969V36.4731H75.9293L75.9333 12.4983C75.9333 10.5914 74.5728 9.59363 73.2295 9.59363C71.9438 9.59363 70.5604 10.5135 70.5604 12.5338L70.5624 28.6805C70.5624 29.779 71.4231 30.4791 72.5864 30.6832L72.5887 36.4612C72.2061 36.463 62.6161 36.4641 62.2327 36.4641L62.2358 12.4896C62.2358 10.5818 60.8741 9.58488 59.5301 9.58488C58.2461 9.58488 56.8617 10.5048 56.8617 12.5261L56.8765 28.672C56.8765 29.7685 57.7354 30.4714 58.8979 30.6734L58.8999 36.4536L46.0552 36.4513V30.6853C47.5055 30.4833 48.5526 29.7606 48.5526 28.672V25.3924L52.2431 25.3906L52.252 14.7467L52.049 14.7458C52.0261 14.7458 49.8315 14.7339 48.7014 14.7409C48.8692 14.2262 48.9617 13.7106 48.9617 13.2058C48.9617 12.418 48.7685 11.6302 48.3763 10.9143C47.9127 10.0702 47.276 9.47561 46.4121 9.01229L46.4142 3.64156H56.6921V6.08786L57.0493 5.65707C58.5243 3.88433 60.995 2.80646 63.2699 2.80556C65.5188 2.80466 67.8166 3.74028 69.3232 5.2292L69.4574 5.35933L69.5969 5.23952Z" fill="#141A25"/>
<path d="M42.8357 23.8965C41.6647 23.8631 40.6429 23.3356 40.027 22.4511C39.5783 21.8054 39.3525 21.0845 39.3525 20.3066C39.3525 18.9153 40.1197 17.458 41.5128 16.2026L41.6494 16.0783L41.5404 15.9305C41.2294 15.5134 40.9285 14.9949 40.7728 14.6103C40.6156 14.2248 40.5341 13.8127 40.5327 13.3965C40.5327 12.8048 40.7073 12.2291 41.0376 11.7341C41.6351 10.8348 42.662 10.3123 43.8527 10.2975C45.1388 10.2818 46.19 10.8369 46.7314 11.8227C46.964 12.2378 47.0841 12.7159 47.0841 13.2051C47.0841 13.8174 46.8988 14.4256 46.5537 14.963C46.2914 15.3693 45.901 15.7647 45.6329 16.0258L45.5048 16.1501L46.7962 17.9043C46.7962 17.9043 47.9028 16.7398 48.0101 16.6265L50.3646 16.6274C50.3666 16.9538 50.3666 18.8814 50.3666 19.2099C50.0648 19.2076 49.0592 19.1969 49.0592 19.1969L48.2775 19.9963L48.8416 20.8087C48.8416 20.8087 50.0612 20.8188 50.3718 20.8217V23.5036H47.0509C46.9483 23.3636 46.2205 22.3598 46.2205 22.3598L46.0529 22.5305C45.1478 23.444 44.0071 23.9302 42.8357 23.8965ZM43.9129 12.4472C43.6669 12.4472 43.478 12.5418 43.3849 12.7135C43.3416 12.7934 43.3194 12.884 43.3194 12.9856C43.3194 13.1463 43.3762 13.3188 43.4823 13.4846L43.9216 14.1077L44.0872 13.9067C44.2483 13.7193 44.3614 13.5576 44.4285 13.4137C44.4877 13.2874 44.5191 13.1604 44.5191 13.037C44.52 12.92 44.4879 12.8052 44.4264 12.7056C44.3203 12.5398 44.1343 12.4463 43.9129 12.4472ZM43.1186 18.4688C42.7398 18.8818 42.4984 19.2969 42.423 19.6725C42.4035 19.7712 42.3936 19.8716 42.3934 19.9723C42.3934 20.2492 42.4704 20.5105 42.6108 20.706C42.7623 20.9169 42.9781 21.0403 43.2528 21.0728C43.7385 21.1329 44.1698 20.9261 44.6508 20.4044L44.7623 20.281L43.2853 18.2864L43.1186 18.4688ZM88.9954 10.1597C87.5339 10.4949 86.4484 11.5786 86.1614 12.9895C86.1038 13.2705 86.0748 13.5566 86.0746 13.8434C86.0746 15.0709 86.6425 16.1654 87.745 17.0469C88.2792 17.4728 89.0663 17.9186 89.8274 18.3483L90.5777 18.7764C91.3823 19.2496 91.7814 19.6559 91.8191 20.202C91.8209 20.2278 91.8191 20.2534 91.8191 20.277C91.8191 20.57 91.7341 20.7867 91.529 21.0107C91.3594 21.196 90.9847 21.349 90.6219 21.356C89.3896 21.4022 88.5662 20.4971 88.4094 18.9384L88.3643 18.4787H85.9207V23.7175H88.0921C88.0921 23.7175 88.3169 23.4691 88.3661 23.4137C88.9656 23.8041 89.7731 24.0437 90.6163 24.0663C91.6457 24.096 92.4913 23.9046 93.2784 23.461C94.4025 22.829 95.1124 21.7522 95.278 20.4271C95.5304 18.406 94.643 17.0905 93.1579 16.1392L93.168 16.147C92.4788 15.6796 92.0655 15.442 91.4935 15.1118C91.4976 15.1147 90.5808 14.5704 90.5036 14.5241C89.5925 13.9522 89.4269 13.7204 89.4269 13.3567V13.3547C89.4291 13.1339 89.5305 12.9515 89.7385 12.7976C89.9261 12.6616 90.3232 12.5649 90.6912 12.6567C91.4217 12.8371 91.8958 13.4741 91.9966 14.403L92.0468 14.8596L94.4319 14.8587V10.3264H92.4085C92.4085 10.3264 92.2016 10.5532 92.1729 10.5829C91.3657 10.0511 90.1971 9.88552 88.9954 10.1597Z" fill="#141A25"/>
<path d="M90.6323 21.8692C91.0954 21.8582 91.6065 21.6662 91.8984 21.3534C92.2455 20.9769 92.3144 20.6357 92.3054 20.2008C92.3023 19.5226 91.8488 18.9309 90.8374 18.3372C89.9163 17.7969 88.7449 17.1896 88.0648 16.6482C86.8263 15.6582 86.3964 14.413 86.6648 13.0908C86.8974 11.9342 87.7826 10.9631 89.1109 10.6584C90.4133 10.3607 91.5688 10.6427 92.1941 11.2471L92.2314 11.2756C92.2314 11.2756 92.6061 10.8693 92.6337 10.8388H93.9177L93.9195 14.3479L92.5058 14.3488C92.3774 13.1736 91.7344 12.3876 90.8138 12.161C90.3265 12.0396 89.7705 12.161 89.4351 12.3858C89.1021 12.6127 88.9183 12.9528 88.9165 13.3531C88.9143 14.0177 89.3197 14.3874 90.2347 14.9602L91.2374 15.5557C91.8233 15.8929 92.2116 16.1187 92.882 16.5712C94.29 17.4714 94.9842 18.6498 94.7694 20.3655C94.6411 21.3996 94.1087 22.4084 93.027 23.0176C92.2973 23.4277 91.541 23.5816 90.6289 23.557C89.8185 23.5341 88.9085 23.2778 88.3327 22.7533L88.2973 22.7268C88.2973 22.7268 87.8918 23.1764 87.8652 23.2081H86.4317V18.9908H87.9006C88.098 20.9484 89.2596 21.9175 90.6323 21.8692ZM43.913 11.9315C43.4763 11.9315 43.1187 12.1278 42.934 12.4668C42.7278 12.8435 42.7711 13.3295 43.0489 13.7614C43.4137 14.3313 43.7184 14.6311 43.7317 14.643C43.7308 14.643 43.7647 14.6755 43.7647 14.6755L43.8984 14.8077L44.0741 14.6519C44.099 14.6313 44.6552 14.1393 44.8928 13.6315C45.0909 13.2106 45.0792 12.7717 44.8602 12.4296C44.657 12.1119 44.3119 11.9303 43.913 11.9315ZM40.4512 22.1602C39.2595 20.4425 39.9484 18.083 42.1642 16.2876L42.3733 16.1171L42.1918 15.919C41.8241 15.4882 41.4261 14.855 41.2506 14.4193C40.9185 13.597 40.9973 12.7224 41.4635 12.0194C41.9675 11.2651 42.8396 10.8244 43.8587 10.8125C44.9487 10.7986 45.832 11.2572 46.2816 12.0726C46.7234 12.8702 46.6622 13.8474 46.1199 14.6856C45.8398 15.1184 45.3943 15.5434 45.1012 15.8245L44.8203 16.0937L44.9545 16.2741L46.7432 18.7065C46.7432 18.7065 48.1215 17.2551 48.2319 17.1398C48.3602 17.1398 49.5689 17.1368 49.8567 17.1357C49.8567 17.3922 49.8549 18.4373 49.8549 18.6926C49.5805 18.6906 48.8453 18.6827 48.8453 18.6827L47.6086 19.9428L48.5668 21.3231C48.5668 21.3231 49.5599 21.3251 49.8518 21.3272V22.9983C49.5354 22.9974 47.4784 22.9942 47.3088 22.9942C47.2033 22.8475 46.2538 21.5361 46.2538 21.5361L46.0467 21.8015C45.2323 22.8417 44.0676 23.4194 42.8488 23.3849C41.8454 23.3543 40.9704 22.9085 40.4512 22.1602ZM43.1972 17.6758L43.1557 17.7123C42.4714 18.3177 42.0435 18.9605 41.9192 19.5699C41.8927 19.7024 41.8792 19.8371 41.8788 19.9722C41.8788 20.3539 41.9876 20.7207 42.1927 21.0054C42.429 21.3319 42.772 21.532 43.1889 21.5832C43.9695 21.679 44.5984 21.3386 45.2955 20.4483L45.4138 20.2973L43.3615 17.5277L43.1972 17.6758Z" fill="#141A25"/>
<path d="M89.8398 5.65369H90.5329C90.3693 6.11409 88.9751 9.37082 88.892 9.60753H86.2456C86.4074 9.14802 87.5286 5.89219 87.6131 5.65369H89.8398Z" fill="#141A25"/>
<path d="M89.7818 6.16645C89.6263 6.60419 88.6342 8.86898 88.5514 9.09492H86.9541C87.108 8.65919 87.8832 6.3953 87.962 6.16645H89.7818ZM91.2885 7.41663C91.2885 8.3002 92.0074 9.01886 92.8909 9.01886C93.7734 9.01886 94.4922 8.29998 94.4922 7.41663C94.4922 6.53419 93.7734 5.81531 92.8909 5.81531C92.0074 5.81553 91.2885 6.53419 91.2885 7.41663ZM91.5312 7.41663C91.5312 6.66836 92.1415 6.05897 92.8909 6.05897C93.6374 6.05897 94.2477 6.66836 94.2477 7.41663C94.2477 8.16603 93.6374 8.77429 92.8909 8.77429C92.5306 8.77447 92.185 8.63155 91.93 8.37696C91.675 8.12237 91.5316 7.77695 91.5312 7.41663Z" fill="#141A25"/>
<path d="M93.1394 7.39101V7.38315C93.371 7.34075 93.5388 7.17606 93.5388 6.96022C93.5388 6.73248 93.377 6.50183 93.025 6.50183H92.2974V8.33583H92.5931V7.51935H92.8908C92.9756 7.51935 93.1453 7.53214 93.1641 7.72442C93.1856 7.9719 93.1681 8.20861 93.2408 8.33583H93.5327C93.4894 8.2214 93.4657 7.93645 93.4618 7.85657C93.4482 7.48861 93.3672 7.41658 93.1394 7.39101ZM92.9759 7.28062H92.5933V6.70578H92.9759C93.174 6.70578 93.2431 6.85476 93.2431 6.9858C93.2411 7.14757 93.1565 7.28062 92.9759 7.28062Z" fill="#141A25"/>
</svg>
