<svg width="188" height="61" viewBox="0 0 188 61" fill="none" xmlns="http://www.w3.org/2000/svg">
<g clip-path="url(#clip0_138_142)">
<path d="M65.1799 36.595C65.4499 38.2637 67.8349 41.8682 72.1899 41.8682C74.8949 41.8682 76.9099 40.7087 78.0549 38.5863H84.4749C83.0049 43.2092 78.1499 47.5094 72.1899 47.5094C64.6299 47.5094 58.7649 41.4094 58.7649 33.918C58.7649 26.4266 64.3099 20.009 72.1499 20.009C79.9899 20.009 85.2999 27.0316 85.2999 33.4996C85.2999 34.7045 85.1199 35.7632 84.9349 36.595H65.1849H65.1799ZM79.0649 31.6494C78.3799 27.5357 75.2149 25.6452 72.1899 25.6452C69.9399 25.6452 66.1399 26.8904 64.9949 31.6494H79.0649Z" fill="#DC1A41"/>
<path d="M86.8098 21.0225H92.3998V23.291H92.4948C93.6398 21.6224 94.7898 20.1453 97.9498 20.1453H98.4548V26.1041C92.9098 26.336 92.9098 30.727 92.9098 32.2545V46.6677H86.8148V21.0174L86.8098 21.0225Z" fill="#DC1A41"/>
<path d="M100.555 21.0225H106.15V23.291H106.24C107.385 21.6224 108.535 20.1453 111.69 20.1453H112.195V26.1041C106.65 26.336 106.65 30.727 106.65 32.2545V46.6677H100.555V21.0174V21.0225Z" fill="#DC1A41"/>
<path d="M138.595 46.6727H133.005V43.4815C131.08 45.7905 127.32 47.5045 124.115 47.5045C117.56 47.5045 111.74 42.2313 111.74 33.6863C111.74 25.8268 117.425 20.1453 124.48 20.1453C129.66 20.1453 132.73 23.8859 132.915 24.259H133.01V21.0225H138.6V46.6727H138.595ZM125.4 25.7815C120.4 25.7815 117.835 30.1271 117.835 33.9585C117.835 38.3041 121.04 41.8633 125.4 41.8633C129.76 41.8633 132.82 38.536 132.82 33.777C132.82 28.4634 129.015 25.7815 125.4 25.7815Z" fill="#DC1A41"/>
<path d="M141.805 21.0225H147.395V23.291H147.49C148.635 21.6224 149.78 20.1453 152.94 20.1453H153.445V26.1041C147.9 26.336 147.9 30.727 147.9 32.2545V46.6677H141.805V21.0174V21.0225Z" fill="#DC1A41"/>
<path d="M180.755 46.6727H175.165V43.4815C173.24 45.7905 169.475 47.5045 166.27 47.5045C159.715 47.5045 153.895 42.2313 153.895 33.6863C153.895 25.8268 159.58 20.1453 166.635 20.1453C171.815 20.1453 174.89 23.8859 175.07 24.259H175.165V21.0225H180.755V46.6727ZM167.56 25.7815C162.56 25.7815 159.995 30.1271 159.995 33.9585C159.995 38.3041 163.2 41.8633 167.56 41.8633C171.92 41.8633 174.98 38.536 174.98 33.777C174.98 28.4634 171.175 25.7815 167.56 25.7815Z" fill="#DC1A41"/>
<path d="M60.915 11.2522C58.395 11.3278 49.11 12.4168 37.745 29.1086C34.26 29.648 31.12 29.8194 29.145 28.4935C28.29 27.9239 28.2 29.4564 28.6 30.5302C29.695 33.4542 31.5 34.8153 33.71 35.2993C28.22 44.4241 26.56 50.1611 19.505 55.0311C17.455 56.4426 14.62 56.6039 12.165 55.7268C9.51999 54.784 7.61499 52.0264 7.24499 48.2555C6.93499 45.0543 8.29999 42.6395 10.445 40.6582C11 40.144 11.025 39.5844 10.79 39.2114C10.525 38.7879 10.07 38.672 9.75999 38.6972C8.56499 38.7123 5.33999 39.3425 3.23499 41.6312C2.03499 42.9319 0.994993 44.8879 0.689993 46.4608C0.384993 48.0287 -0.685006 57.1635 8.97499 60.1026C9.48499 60.269 17.765 62.6687 26.1 55.7973C34.525 48.8504 39.1 41.5102 43.785 34.1902C48.1 33.1366 52.495 32.0577 55.89 33.4139C57.15 33.918 57.53 33.5903 56.765 31.3419C55.33 27.9995 52.075 27.2735 48.225 27.4954C48.76 26.724 49.345 25.9023 49.945 25.0755C51.47 22.8775 55.03 18.3554 61.435 13.4906C62.195 12.9108 62.435 12.3714 62.27 11.8622C62.115 11.3732 61.47 11.232 60.905 11.2472L60.915 11.2522Z" fill="#DC1A41"/>
<path d="M86.4349 0.872113C86.1599 0.504097 85.6049 0.383105 84.7049 0.640212C76.8649 2.89368 69.5699 3.39782 60.8749 2.5912C55.4099 2.08707 39.9699 0.665419 30.3349 3.02476C21.8499 5.10178 19.6949 11.2421 19.5299 11.6454C16.9249 17.9572 22.0049 23.1144 25.6449 24.1983C28.3249 24.9999 31.8599 24.0017 33.3199 22.0507C33.5999 21.7432 33.5849 21.234 33.3749 20.9164C33.1699 20.6139 32.7249 20.5585 32.3949 20.6391C32.0099 20.7349 31.6199 20.8156 31.2399 20.8509C26.7849 21.3147 22.7399 17.1606 23.9699 12.0386C24.2549 10.8489 25.2399 8.68112 27.8949 7.5317C36.0049 4.03302 50.6049 9.23567 62.0049 10.0977C78.6899 10.6019 84.7049 4.34558 86.1649 2.41476C86.6799 1.73418 86.7399 1.26029 86.4449 0.86203L86.4349 0.872113Z" fill="#DC1A41"/>
<path d="M184.945 42.9116C186.255 42.9116 187.315 43.9804 187.315 45.3012C187.315 46.622 186.255 47.6908 184.945 47.6908C183.635 47.6908 182.575 46.622 182.575 45.3012C182.575 43.9804 183.635 42.9116 184.945 42.9116ZM186.735 45.3062C186.735 44.2677 185.935 43.4309 184.945 43.4309C183.955 43.4309 183.155 44.2677 183.155 45.3062C183.155 46.3448 183.955 47.1816 184.945 47.1816C185.935 47.1816 186.735 46.3448 186.735 45.3062ZM184.8 45.518H184.395V46.6724H183.92V43.9401H184.975C185.645 43.9401 185.99 44.172 185.99 44.7265C185.99 45.2205 185.675 45.4272 185.295 45.4978L186.035 46.6724H185.485L184.795 45.518H184.8ZM184.885 45.1197C185.225 45.1197 185.525 45.0895 185.525 44.7063C185.525 44.3887 185.19 44.3383 184.925 44.3383H184.4V45.1197H184.885Z" fill="#DC1A41"/>
</g>
<defs>
<clipPath id="clip0_138_142">
<rect width="188" height="61" fill="white"/>
</clipPath>
</defs>
</svg>
