<svg width="230" height="26" viewBox="0 0 230 26" fill="none" xmlns="http://www.w3.org/2000/svg">
<path d="M63.233 25.6854H60.7234V3.15755C60.7234 3.15755 60.6244 3.13239 60.575 3.11982C57.2741 10.6669 53.9608 18.2265 50.6104 25.8867C46.7161 18.2894 42.8712 10.7926 39.0263 3.28333C38.9892 3.28333 38.9645 3.28334 38.9274 3.29591V25.6477C38.7049 25.6603 38.5442 25.6854 38.334 25.698V0.729922C39.1005 0.729922 39.8423 0.704765 40.5717 0.755079C40.7324 0.755079 40.9426 1.00665 41.0291 1.19532C44.4166 7.74866 47.7793 14.302 51.1544 20.8553C51.3028 21.1446 51.4758 21.434 51.6736 21.7987C52.6998 19.4717 53.6888 17.2202 54.6779 14.9687C56.693 10.3775 58.7205 5.78643 60.7234 1.19532C60.8717 0.855706 61.0448 0.717344 61.4157 0.729922C61.9967 0.767657 62.5902 0.729922 63.2207 0.729922V25.6854H63.233Z" fill="#141A25"/>
<path d="M158.998 13.5343C160.234 14.1507 160.988 15.1695 161.643 16.2638C163.424 19.2827 165.204 22.3015 166.984 25.3203C167.034 25.4083 167.071 25.4964 167.17 25.6851C166.23 25.6851 165.34 25.7102 164.462 25.6599C164.326 25.6599 164.165 25.3832 164.067 25.2071C162.398 22.3769 160.728 19.5342 159.059 16.7041C158.812 16.289 158.565 15.8991 158.281 15.5091C157.452 14.3645 156.315 13.7607 154.93 13.6475C154.176 13.5846 153.41 13.6475 152.581 13.6475V25.6599H150.047V0.767267C150.183 0.754689 150.294 0.716953 150.405 0.716953C152.977 0.716953 155.548 0.679218 158.108 0.754689C159.097 0.779845 160.086 1.01883 161.05 1.29556C164.067 2.2012 165.278 5.40869 164.771 7.97468C164.165 11.0312 162.36 12.8174 159.344 13.4211C159.257 13.4337 159.171 13.484 159.01 13.5343H158.998ZM152.594 13.3079C154.127 13.245 155.623 13.245 157.094 13.1067C158.231 12.9935 159.294 12.5281 160.197 11.7859C162.138 10.1885 162.571 8.05015 162.262 5.66026C161.965 3.34584 160.654 1.93706 158.454 1.34587C156.55 0.842737 154.609 0.918208 152.668 0.9811C152.643 0.9811 152.618 1.03141 152.557 1.08173C152.557 4.99361 152.557 8.93064 152.557 12.8677C152.557 12.9683 152.569 13.0564 152.594 13.2953" fill="#141A25"/>
<path d="M214.883 25.6721H212.373V0.703976C212.781 0.703976 213.177 0.703976 213.56 0.703976C215.847 0.703976 218.147 0.678819 220.434 0.75429C221.423 0.792025 222.412 1.01844 223.364 1.29516C226.318 2.16307 227.691 5.37056 227.023 8.26359C226.356 11.1315 224.551 12.8295 221.707 13.3956C221.596 13.4207 221.497 13.4585 221.311 13.5214C222.56 14.1251 223.29 15.1188 223.932 16.2006C225.775 19.32 227.617 22.4394 229.521 25.6847C228.544 25.6847 227.654 25.6972 226.776 25.6595C226.64 25.6595 226.492 25.4205 226.393 25.257C224.724 22.4269 223.067 19.5841 221.398 16.754C221.126 16.2886 220.829 15.8484 220.52 15.4207C219.642 14.2509 218.443 13.6975 217.022 13.6346C216.329 13.5968 215.625 13.6346 214.87 13.6346V25.6595L214.883 25.6721ZM214.895 13.2195C216.181 13.2195 217.392 13.2572 218.604 13.2195C219.816 13.1817 220.965 12.8295 222.004 12.1755C224.093 10.8547 225.045 8.33906 224.563 5.54666C224.254 3.72279 223.364 2.3769 221.633 1.67251C219.457 0.792025 217.182 0.955544 214.883 0.993279V13.2069L214.895 13.2195Z" fill="#141A25"/>
<path d="M186.992 20.5662C186.992 20.3524 186.992 20.1385 186.992 19.9247C187.029 13.7361 187.066 7.54758 187.115 1.35901C187.115 1.04455 187.016 0.616888 187.622 0.780407V26.0001C187.338 25.7234 187.14 25.585 186.992 25.3963C183.258 20.5536 179.524 15.711 175.803 10.8557C174.344 8.95636 172.886 7.0696 171.328 5.04448V25.6605C171.105 25.673 170.945 25.6856 170.734 25.7108V0.453369C171.056 0.667202 171.328 0.767829 171.476 0.956505C176.458 7.30859 181.428 13.6733 186.398 20.0379C186.547 20.2266 186.695 20.4027 186.843 20.5914C186.893 20.5914 186.942 20.5788 186.992 20.5662Z" fill="#141A25"/>
<path d="M128.089 0.754893H130.685C130.685 1.03162 130.685 1.28319 130.685 1.52217C130.71 6.47806 130.698 11.4339 130.772 16.3898C130.797 18.1885 131.205 19.9369 132.07 21.547C133.121 23.5092 134.765 24.5406 136.966 24.6413C138.251 24.7041 139.512 24.5909 140.712 24.0752C142.962 23.0941 143.976 21.1696 144.384 18.8804C144.618 17.5722 144.705 16.2389 144.717 14.9056C144.754 10.4528 144.73 5.9875 144.73 1.53475V0.78005C144.94 0.767472 145.101 0.742315 145.323 0.729736C145.335 0.943569 145.36 1.10709 145.36 1.28319C145.36 6.27681 145.36 11.2704 145.36 16.2766C145.36 17.8615 145.076 19.4086 144.507 20.8803C143.333 23.9117 141.083 25.4966 137.942 25.7985C136.174 25.9746 134.407 25.8362 132.762 25.0563C130.364 23.9243 129.14 21.8489 128.67 19.3458C128.324 17.4464 128.139 15.4842 128.089 13.5471C128.003 9.44656 128.064 5.34601 128.064 1.24545C128.064 1.10709 128.077 0.968726 128.089 0.767472" fill="#141A25"/>
<path d="M193.385 0.767822V25.673H208.443V25.0819H195.907V13.1072H202.472V12.5412H195.907V1.30869H207.058V0.767822H193.385Z" fill="#141A25"/>
<path d="M34.8733 25.6977C33.9461 25.6977 33.1177 25.7228 32.3018 25.6725C32.1287 25.6725 31.8938 25.4209 31.832 25.2322C30.7317 22.1505 29.6437 19.0688 28.5805 15.9746C28.4445 15.5972 28.2714 15.5092 27.9129 15.5092C25.5021 15.5092 23.079 15.4966 20.6682 15.4714C20.2973 15.4714 20.1242 15.5595 19.9882 15.9368C18.8756 19.0311 17.7258 22.1128 16.6008 25.2197C16.4524 25.6348 16.267 25.8234 15.7725 25.6348C18.9374 17.1318 22.1147 8.64135 25.329 0C28.5311 8.62878 31.6836 17.1192 34.8856 25.7102L34.8733 25.6977ZM24.3771 4.05024C23.0172 7.74829 21.7067 11.308 20.3839 14.9054H28.1849C26.9115 11.2954 25.6628 7.73571 24.3771 4.05024Z" fill="#141A25"/>
<path d="M92.2783 0.780029C92.4637 1.3209 92.1547 1.3209 91.7961 1.3209C88.4829 1.3209 85.1572 1.3209 81.8439 1.3209H81.1021V12.5408H87.6298C87.8152 13.0691 87.5803 13.132 87.1847 13.132C85.3797 13.132 83.5747 13.132 81.7697 13.132H81.1021V25.1066H81.8192C85.5899 25.1066 89.3606 25.1066 93.1313 25.1066C93.5022 25.1066 93.836 25.1066 93.6506 25.6727H78.6172V0.780029H92.2907H92.2783Z" fill="#141A25"/>
<path d="M124.77 0.767822C124.943 1.34643 124.621 1.32127 124.275 1.32127C121.84 1.32127 119.404 1.32127 116.981 1.32127H116.289V25.6227H113.779V1.32127H112.58C110.206 1.32127 107.832 1.32127 105.459 1.32127C105.088 1.32127 104.816 1.27096 105.001 0.767822H124.77Z" fill="#141A25"/>
<path d="M72.1972 0.780029H69.7246V25.6601H72.1972V0.780029Z" fill="#141A25"/>
<path d="M0 20.3148H2.27479C2.58386 23.2959 3.93143 25.2078 6.6142 25.2078C9.29697 25.2078 10.6074 23.4972 10.6074 20.0633V0.918945H13.1666V19.6104C13.1666 23.8368 10.0511 25.711 6.6142 25.711C3.17729 25.711 0.506882 23.8116 0 20.3148Z" fill="#141A25"/>
</svg>
