<svg width="277" height="40" viewBox="0 0 277 40" fill="none" xmlns="http://www.w3.org/2000/svg">
<path d="M0 7.11304H9.50288V30.9435H23.5141L20.7469 39.1306H0V7.11304Z" fill="#0C1528"/>
<path d="M44.8575 35.4256H34.5325L33.5268 39.1307H23.6577L34.5778 7.11304H44.8576L55.7307 39.1306H45.8625L44.8575 35.4256ZM43.0297 28.5188L39.695 16.0779L36.3595 28.5188H43.0297Z" fill="#0C1528"/>
<path d="M60.2347 15.3001H52.0107V7.11304H78.0069V15.3001H69.7837V39.1306H60.2347V15.3001Z" fill="#0C1528"/>
<path d="M81.0684 7.11304H90.5721V39.1306H81.0684V7.11304Z" fill="#0C1528"/>
<path d="M101.856 15.3001H93.6333V7.11304H119.629V15.3001H111.405V39.1306H101.856V15.3001Z" fill="#0C1528"/>
<path d="M121.823 28.0162V7.11304H131.372V27.4214C131.372 30.211 133.108 31.9495 135.803 31.9495C138.453 31.9495 140.235 30.211 140.235 27.4214V7.11304H149.738V28.0162C149.738 35.517 144.302 39.9999 135.803 39.9999C127.26 39.9999 121.823 35.517 121.823 28.0162Z" fill="#0C1528"/>
<path d="M154.535 7.11304H167.738C177.744 7.11304 184.323 14.1566 184.323 23.1223C184.323 32.1324 177.789 39.1306 167.738 39.1306H154.535V7.11304ZM166.916 31.3547C171.713 31.3547 174.455 27.6043 174.455 23.1223C174.455 18.6403 171.713 14.8891 166.916 14.8891H164.038V31.3547H166.916Z" fill="#0C1528"/>
<path d="M187.887 7.11304H208.446V14.2489H197.39V19.8283H208.446V26.6437H197.39V31.9958H208.446V39.1307H187.887V7.11304Z" fill="#0C1528"/>
<path d="M243.401 25.8767L233.797 39.157H225.001L231.657 30.3511C224.621 29.7325 220.389 24.8297 220.389 18.2607C220.389 11.2639 225.286 6.0752 233.131 6.0752C240.976 6.0752 245.826 11.2639 245.826 18.2607C245.826 21.2119 244.971 23.83 243.401 25.8767ZM233.131 24.2584C236.555 24.2584 238.599 21.7355 238.599 18.2607C238.599 14.7859 236.555 12.2158 233.131 12.2158C229.66 12.2158 227.664 14.786 227.664 18.2607C227.664 21.7355 229.66 24.2584 233.131 24.2584Z" fill="#0C1528"/>
<path d="M243.209 22.9732C243.209 11.9777 247.917 6.0752 256.713 6.0752C265.509 6.0752 270.216 11.9777 270.216 22.9732C270.216 33.9687 265.509 39.8712 256.713 39.8712C247.917 39.8712 243.209 33.9687 243.209 22.9732ZM262.894 22.9732C262.894 15.6904 260.897 12.2631 256.713 12.2631C252.528 12.2631 250.532 15.6905 250.532 22.9732C250.532 30.3037 252.529 33.6833 256.713 33.6833C260.896 33.6833 262.894 30.2558 262.894 22.9732Z" fill="#0C1528"/>
<path d="M271.947 8.99585C269.47 8.99585 267.455 6.97781 267.455 4.4977C267.455 2.01759 269.47 0 271.947 0C274.424 0 276.44 2.01759 276.44 4.4977C276.44 6.97781 274.424 8.99585 271.947 8.99585ZM271.947 1.78383C270.453 1.78383 269.236 3.00141 269.236 4.49779C269.236 5.99417 270.453 7.2122 271.947 7.2122C273.442 7.2122 274.658 5.99462 274.658 4.49779C274.658 3.00097 273.442 1.78383 271.947 1.78383Z" fill="#0C1528"/>
</svg>
