<svg width="187" height="28" viewBox="0 0 187 28" fill="none" xmlns="http://www.w3.org/2000/svg">
<path d="M0.316406 4.86609H6.71854V20.9208H16.1579L14.2937 26.4366H0.316406V4.86609Z" fill="#141A25"/>
<path d="M0.316406 4.86609H6.71854V20.9208H16.1579L14.2937 26.4366H0.316406V4.86609Z" fill="url(#paint0_linear_154_836)" fill-opacity="0.4"/>
<path d="M30.537 23.9405H23.581L22.9035 26.4366H16.2546L23.6115 4.86609H30.5371L37.8624 26.4365H31.2141L30.537 23.9405ZM29.3056 19.2873L27.059 10.9058L24.8119 19.2873H29.3056Z" fill="#141A25"/>
<path d="M30.537 23.9405H23.581L22.9035 26.4366H16.2546L23.6115 4.86609H30.5371L37.8624 26.4365H31.2141L30.537 23.9405ZM29.3056 19.2873L27.059 10.9058L24.8119 19.2873H29.3056Z" fill="url(#paint1_linear_154_836)" fill-opacity="0.4"/>
<path d="M40.897 10.3818H35.3564V4.86609H52.8701V10.3818H47.3302V26.4366H40.897V10.3818Z" fill="#141A25"/>
<path d="M40.897 10.3818H35.3564V4.86609H52.8701V10.3818H47.3302V26.4366H40.897V10.3818Z" fill="url(#paint2_linear_154_836)" fill-opacity="0.4"/>
<path d="M54.9324 4.86609H61.3351V26.4366H54.9324V4.86609Z" fill="#141A25"/>
<path d="M54.9324 4.86609H61.3351V26.4366H54.9324V4.86609Z" fill="url(#paint3_linear_154_836)" fill-opacity="0.4"/>
<path d="M68.9377 10.3818H63.3977V4.86609H80.9114V10.3818H75.3709V26.4366H68.9377V10.3818Z" fill="#141A25"/>
<path d="M68.9377 10.3818H63.3977V4.86609H80.9114V10.3818H75.3709V26.4366H68.9377V10.3818Z" fill="url(#paint4_linear_154_836)" fill-opacity="0.4"/>
<path d="M82.3892 18.9487V4.86609H88.8224V18.5479C88.8224 20.4274 89.9923 21.5986 91.808 21.5986C93.5933 21.5986 94.7937 20.4274 94.7937 18.5479V4.86609H101.196V18.9487C101.196 24.002 97.5332 27.0221 91.808 27.0221C86.0524 27.0221 82.3892 24.002 82.3892 18.9487Z" fill="#141A25"/>
<path d="M82.3892 18.9487V4.86609H88.8224V18.5479C88.8224 20.4274 89.9923 21.5986 91.808 21.5986C93.5933 21.5986 94.7937 20.4274 94.7937 18.5479V4.86609H101.196V18.9487C101.196 24.002 97.5332 27.0221 91.808 27.0221C86.0524 27.0221 82.3892 24.002 82.3892 18.9487Z" fill="url(#paint5_linear_154_836)" fill-opacity="0.4"/>
<path d="M104.427 4.86609H113.322C120.063 4.86609 124.496 9.61137 124.496 15.6516C124.496 21.7218 120.094 26.4366 113.322 26.4366H104.427V4.86609ZM112.769 21.1978C116 21.1978 117.847 18.6712 117.847 15.6516C117.847 12.6321 116 10.1049 112.769 10.1049H110.829V21.1978H112.769Z" fill="#141A25"/>
<path d="M104.427 4.86609H113.322C120.063 4.86609 124.496 9.61137 124.496 15.6516C124.496 21.7218 120.094 26.4366 113.322 26.4366H104.427V4.86609ZM112.769 21.1978C116 21.1978 117.847 18.6712 117.847 15.6516C117.847 12.6321 116 10.1049 112.769 10.1049H110.829V21.1978H112.769Z" fill="url(#paint6_linear_154_836)" fill-opacity="0.4"/>
<path d="M126.896 4.86609H140.748V9.67356H133.299V13.4325H140.748V18.024H133.299V21.6297H140.748V26.4366H126.896V4.86609Z" fill="#141A25"/>
<path d="M126.896 4.86609H140.748V9.67356H133.299V13.4325H140.748V18.024H133.299V21.6297H140.748V26.4366H126.896V4.86609Z" fill="url(#paint7_linear_154_836)" fill-opacity="0.4"/>
<path d="M164.297 17.5073L157.826 26.4543H151.9L156.385 20.5217C151.644 20.1049 148.793 16.8019 148.793 12.3763C148.793 7.66254 152.093 4.16687 157.378 4.16687C162.663 4.16687 165.931 7.66254 165.931 12.3763C165.931 14.3646 165.354 16.1284 164.297 17.5073ZM157.378 16.417C159.684 16.417 161.062 14.7173 161.062 12.3763C161.062 10.0353 159.684 8.30384 157.378 8.30384C155.039 8.30384 153.694 10.0354 153.694 12.3763C153.694 14.7173 155.039 16.417 157.378 16.417Z" fill="#141A25"/>
<path d="M164.297 17.5073L157.826 26.4543H151.9L156.385 20.5217C151.644 20.1049 148.793 16.8019 148.793 12.3763C148.793 7.66254 152.093 4.16687 157.378 4.16687C162.663 4.16687 165.931 7.66254 165.931 12.3763C165.931 14.3646 165.354 16.1284 164.297 17.5073ZM157.378 16.417C159.684 16.417 161.062 14.7173 161.062 12.3763C161.062 10.0353 159.684 8.30384 157.378 8.30384C155.039 8.30384 153.694 10.0354 153.694 12.3763C153.694 14.7173 155.039 16.417 157.378 16.417Z" fill="url(#paint8_linear_154_836)" fill-opacity="0.4"/>
<path d="M164.167 15.5512C164.167 8.14341 167.339 4.16687 173.265 4.16687C179.191 4.16687 182.362 8.14341 182.362 15.5512C182.362 22.9589 179.191 26.9354 173.265 26.9354C167.339 26.9354 164.167 22.9589 164.167 15.5512ZM177.429 15.5512C177.429 10.6447 176.084 8.33569 173.265 8.33569C170.446 8.33569 169.101 10.6448 169.101 15.5512C169.101 20.4898 170.446 22.7666 173.265 22.7666C176.083 22.7666 177.429 20.4575 177.429 15.5512Z" fill="#141A25"/>
<path d="M164.167 15.5512C164.167 8.14341 167.339 4.16687 173.265 4.16687C179.191 4.16687 182.362 8.14341 182.362 15.5512C182.362 22.9589 179.191 26.9354 173.265 26.9354C167.339 26.9354 164.167 22.9589 164.167 15.5512ZM177.429 15.5512C177.429 10.6447 176.084 8.33569 173.265 8.33569C170.446 8.33569 169.101 10.6448 169.101 15.5512C169.101 20.4898 170.446 22.7666 173.265 22.7666C176.083 22.7666 177.429 20.4575 177.429 15.5512Z" fill="url(#paint9_linear_154_836)" fill-opacity="0.4"/>
<path d="M183.528 6.13453C181.86 6.13453 180.502 4.77497 180.502 3.1041C180.502 1.43324 181.86 0.0739746 183.528 0.0739746C185.197 0.0739746 186.555 1.43324 186.555 3.1041C186.555 4.77497 185.197 6.13453 183.528 6.13453ZM183.528 1.27575C182.521 1.27575 181.702 2.09604 181.702 3.10416C181.702 4.11228 182.521 4.93288 183.528 4.93288C184.535 4.93288 185.355 4.11259 185.355 3.10416C185.355 2.09574 184.535 1.27575 183.528 1.27575Z" fill="#141A25"/>
<path d="M183.528 6.13453C181.86 6.13453 180.502 4.77497 180.502 3.1041C180.502 1.43324 181.86 0.0739746 183.528 0.0739746C185.197 0.0739746 186.555 1.43324 186.555 3.1041C186.555 4.77497 185.197 6.13453 183.528 6.13453ZM183.528 1.27575C182.521 1.27575 181.702 2.09604 181.702 3.10416C181.702 4.11228 182.521 4.93288 183.528 4.93288C184.535 4.93288 185.355 4.11259 185.355 3.10416C185.355 2.09574 184.535 1.27575 183.528 1.27575Z" fill="url(#paint10_linear_154_836)" fill-opacity="0.4"/>
<defs>
<linearGradient id="paint0_linear_154_836" x1="0.316406" y1="15.6513" x2="16.1579" y2="15.6513" gradientUnits="userSpaceOnUse">
<stop stop-opacity="0"/>
<stop offset="1"/>
</linearGradient>
<linearGradient id="paint1_linear_154_836" x1="16.2546" y1="15.6513" x2="37.8624" y2="15.6513" gradientUnits="userSpaceOnUse">
<stop stop-opacity="0"/>
<stop offset="1"/>
</linearGradient>
<linearGradient id="paint2_linear_154_836" x1="35.3564" y1="15.6513" x2="52.8701" y2="15.6513" gradientUnits="userSpaceOnUse">
<stop stop-opacity="0"/>
<stop offset="1"/>
</linearGradient>
<linearGradient id="paint3_linear_154_836" x1="54.9324" y1="15.6513" x2="61.3351" y2="15.6513" gradientUnits="userSpaceOnUse">
<stop stop-opacity="0"/>
<stop offset="1"/>
</linearGradient>
<linearGradient id="paint4_linear_154_836" x1="63.3977" y1="15.6513" x2="80.9114" y2="15.6513" gradientUnits="userSpaceOnUse">
<stop stop-opacity="0"/>
<stop offset="1"/>
</linearGradient>
<linearGradient id="paint5_linear_154_836" x1="82.3892" y1="15.9441" x2="101.196" y2="15.9441" gradientUnits="userSpaceOnUse">
<stop stop-opacity="0"/>
<stop offset="1"/>
</linearGradient>
<linearGradient id="paint6_linear_154_836" x1="104.427" y1="15.6513" x2="124.496" y2="15.6513" gradientUnits="userSpaceOnUse">
<stop stop-opacity="0"/>
<stop offset="1"/>
</linearGradient>
<linearGradient id="paint7_linear_154_836" x1="126.896" y1="15.6513" x2="140.748" y2="15.6513" gradientUnits="userSpaceOnUse">
<stop stop-opacity="0"/>
<stop offset="1"/>
</linearGradient>
<linearGradient id="paint8_linear_154_836" x1="148.793" y1="15.3106" x2="165.931" y2="15.3106" gradientUnits="userSpaceOnUse">
<stop stop-opacity="0"/>
<stop offset="1"/>
</linearGradient>
<linearGradient id="paint9_linear_154_836" x1="164.167" y1="15.5512" x2="182.362" y2="15.5512" gradientUnits="userSpaceOnUse">
<stop stop-opacity="0"/>
<stop offset="1"/>
</linearGradient>
<linearGradient id="paint10_linear_154_836" x1="180.502" y1="3.10425" x2="186.555" y2="3.10425" gradientUnits="userSpaceOnUse">
<stop stop-opacity="0"/>
<stop offset="1"/>
</linearGradient>
</defs>
</svg>
