<svg width="127" height="42" viewBox="0 0 127 42" fill="none" xmlns="http://www.w3.org/2000/svg">
<g clip-path="url(#clip0_154_759)">
<path d="M43.9122 24.6543C44.0941 25.7785 45.7008 28.2069 48.6348 28.2069C50.4572 28.2069 51.8147 27.4257 52.5861 25.9958H56.9113C55.9209 29.1103 52.6501 32.0074 48.6348 32.0074C43.5416 32.0074 39.5903 27.8978 39.5903 22.8508C39.5903 17.8038 43.326 13.4802 48.6079 13.4802C53.8897 13.4802 57.4671 18.2114 57.4671 22.5689C57.4671 23.3806 57.3458 24.0939 57.2212 24.6543H43.9155H43.9122ZM53.2665 21.3224C52.8051 18.551 50.6728 17.2774 48.6348 17.2774C47.119 17.2774 44.5589 18.1163 43.7875 21.3224H53.2665Z" fill="#141A25"/>
<path d="M58.4844 14.163H62.2504V15.6914H62.3144C63.0858 14.5672 63.8605 13.572 65.9894 13.572H66.3297V17.5865C62.594 17.7428 62.594 20.701 62.594 21.7301V31.4403H58.4877V14.1596L58.4844 14.163Z" fill="#141A25"/>
<path d="M67.7446 14.163H71.514V15.6914H71.5746C72.346 14.5672 73.1208 13.572 75.2463 13.572H75.5866V17.5865C71.8509 17.7428 71.8509 20.701 71.8509 21.7301V31.4403H67.7446V14.1596V14.163Z" fill="#141A25"/>
<path d="M93.3721 31.4437H89.6061V29.2938C88.3092 30.8493 85.7761 32.0041 83.6169 32.0041C79.2007 32.0041 75.2798 28.4515 75.2798 22.6947C75.2798 17.3997 79.1098 13.572 83.8628 13.572C87.3526 13.572 89.4209 16.0921 89.5455 16.3435H89.6095V14.163H93.3755V31.4437H93.3721ZM84.4826 17.3692C81.1141 17.3692 79.386 20.2968 79.386 22.8781C79.386 25.8057 81.5452 28.2036 84.4826 28.2036C87.42 28.2036 89.4815 25.962 89.4815 22.7558C89.4815 19.176 86.918 17.3692 84.4826 17.3692Z" fill="#141A25"/>
<path d="M95.5347 14.163H99.3007V15.6914H99.3647C100.136 14.5672 100.907 13.572 103.036 13.572H103.377V17.5865C99.6409 17.7428 99.6409 20.701 99.6409 21.7301V31.4403H95.5347V14.1596V14.163Z" fill="#141A25"/>
<path d="M121.775 31.4437H118.009V29.2938C116.713 30.8493 114.176 32.0041 112.017 32.0041C107.601 32.0041 103.68 28.4515 103.68 22.6947C103.68 17.3997 107.51 13.572 112.263 13.572C115.752 13.572 117.824 16.0921 117.945 16.3435H118.009V14.163H121.775V31.4437ZM112.886 17.3692C109.517 17.3692 107.789 20.2968 107.789 22.8781C107.789 25.8057 109.949 28.2036 112.886 28.2036C115.823 28.2036 117.885 25.962 117.885 22.7558C117.885 19.176 115.321 17.3692 112.886 17.3692Z" fill="#141A25"/>
<path d="M41.0388 7.58078C39.3411 7.63173 33.0857 8.36534 25.4291 19.6107C23.0812 19.9741 20.9658 20.0896 19.6352 19.1963C19.0592 18.8126 18.9986 19.8451 19.268 20.5685C20.0058 22.5384 21.2218 23.4554 22.7107 23.7814C19.012 29.9289 17.8937 33.7939 13.1407 37.0748C11.7596 38.0258 9.84965 38.1345 8.1957 37.5435C6.41375 36.9084 5.13034 35.0506 4.88107 32.5101C4.67222 30.3534 5.59183 28.7265 7.03693 27.3918C7.41083 27.0453 7.42768 26.6683 7.26936 26.417C7.09082 26.1317 6.78429 26.0536 6.57544 26.0706C5.77036 26.0808 3.59766 26.5053 2.17951 28.0473C1.37107 28.9235 0.670414 30.2413 0.464934 31.301C0.259454 32.3573 -0.46141 38.5115 6.04658 40.4916C6.39017 40.6036 11.9684 42.2203 17.5838 37.5911C23.2597 32.9109 26.3419 27.9658 29.4983 23.0342C32.4053 22.3244 35.3662 21.5976 37.6535 22.5112C38.5023 22.8508 38.7583 22.6301 38.2429 21.1153C37.2762 18.8635 35.0833 18.3744 32.4895 18.5239C32.8499 18.0042 33.2441 17.4506 33.6483 16.8936C34.6757 15.4128 37.0741 12.3663 41.3892 9.08877C41.9012 8.69819 42.0629 8.33478 41.9517 7.99174C41.8473 7.6623 41.4127 7.5672 41.0321 7.57739L41.0388 7.58078Z" fill="#141A25"/>
<path d="M58.2318 0.587625C58.0466 0.339691 57.6727 0.258178 57.0663 0.431392C51.7845 1.94957 46.8698 2.2892 41.0119 1.74579C37.3301 1.40615 26.9281 0.448374 20.437 2.03787C14.7206 3.43718 13.2688 7.57395 13.1576 7.84566C11.4026 12.0979 14.825 15.5724 17.2773 16.3026C19.0828 16.8426 21.4644 16.1701 22.448 14.8558C22.6366 14.6486 22.6265 14.3055 22.485 14.0916C22.3469 13.8878 22.0471 13.8504 21.8248 13.9048C21.5654 13.9693 21.3027 14.0236 21.0467 14.0474C18.0453 14.3599 15.3202 11.5613 16.1488 8.11057C16.3409 7.30903 17.0045 5.84859 18.7931 5.07422C24.2569 2.71715 34.093 6.22219 41.7732 6.80297C53.014 7.14261 57.0663 2.92772 58.0499 1.62691C58.3969 1.1684 58.4373 0.849145 58.2386 0.580832L58.2318 0.587625Z" fill="#141A25"/>
<path d="M124.599 28.9099C125.481 28.9099 126.195 29.6299 126.195 30.5198C126.195 31.4096 125.481 32.1297 124.599 32.1297C123.716 32.1297 123.002 31.4096 123.002 30.5198C123.002 29.6299 123.716 28.9099 124.599 28.9099ZM125.805 30.5232C125.805 29.8235 125.266 29.2597 124.599 29.2597C123.932 29.2597 123.393 29.8235 123.393 30.5232C123.393 31.2228 123.932 31.7866 124.599 31.7866C125.266 31.7866 125.805 31.2228 125.805 30.5232ZM124.501 30.6658H124.228V31.4436H123.908V29.6028H124.619C125.07 29.6028 125.303 29.759 125.303 30.1326C125.303 30.4654 125.09 30.6047 124.834 30.6522L125.333 31.4436H124.962L124.498 30.6658H124.501ZM124.558 30.3975C124.787 30.3975 124.989 30.3771 124.989 30.119C124.989 29.905 124.764 29.8711 124.585 29.8711H124.231V30.3975H124.558Z" fill="#141A25"/>
</g>
<defs>
<clipPath id="clip0_154_759">
<rect width="126.657" height="41.096" fill="white"/>
</clipPath>
</defs>
</svg>
