<svg width="176" height="41" viewBox="0 0 176 41" fill="none" xmlns="http://www.w3.org/2000/svg">
<path d="M0.463867 20.5452C0.463867 20.8018 0.470203 21.0552 0.479707 21.3087L0.486043 21.4829C0.495546 21.73 0.511386 21.9708 0.530393 22.2084C0.657109 23.7638 0.95806 25.2844 1.42691 26.7511C13.2052 19.1355 24.8789 3.15974 26.4882 0.910531C25.56 0.647595 24.597 0.444849 23.6181 0.314965L23.0922 0.248439C22.9148 0.229431 22.7374 0.213592 22.5568 0.197752L22.3509 0.181913C22.1735 0.169241 21.9929 0.159738 21.8155 0.153402L21.616 0.143898C21.372 0.134394 21.1281 0.131226 20.8842 0.131226C9.62228 0.128059 0.463867 9.28647 0.463867 20.5452Z" fill="#141A25"/>
<path d="M2.22412 28.8032C2.48072 29.3766 2.76583 29.9468 3.06678 30.498C6.67819 36.9542 13.505 40.9648 20.8862 40.9648C23.8356 40.9648 26.674 40.3502 29.3382 39.1337C26.9211 38.5318 25.0299 37.0302 23.712 34.6575C22.3118 32.139 21.5515 28.629 21.4438 24.2224H13.9549V22.0302H21.447C21.4945 19.8412 21.6814 17.4494 22.0014 14.9183C22.2168 13.2108 22.5621 11.1009 22.9581 9.00696C22.863 9.12734 22.7648 9.24772 22.6666 9.3681C20.1608 12.4441 11.3128 22.8887 2.22412 28.8V28.8032Z" fill="#141A25"/>
<path d="M27.3671 1.16577C25.3364 7.35586 24.4906 13.7107 24.1358 17.9747C24.0218 19.2672 23.9489 20.5153 23.9172 21.6875C23.9141 21.8205 23.9109 21.9314 23.9077 22.0201H27.8898V24.2123H23.9172C24.0534 29.2778 25.0608 32.886 26.9172 34.9356C27.1707 35.2144 27.4589 35.4773 27.7694 35.7118C28.0006 35.8702 28.6596 36.2852 29.5593 36.5608C32.404 37.3813 34.7736 35.49 35.781 34.489C36.9817 33.206 38.0207 31.7709 38.8634 30.2123C38.9616 30.0222 39.063 29.8385 39.1612 29.6389C39.1738 29.6167 39.1833 29.5914 39.196 29.5692C39.2562 29.4488 39.3164 29.3253 39.3734 29.2049L39.4051 29.1384C40.6659 26.433 41.3058 23.5375 41.3058 20.5312C41.3058 11.7086 35.7113 3.95353 27.3639 1.16577H27.3671Z" fill="#141A25"/>
<path d="M64.8823 17.6915L63.873 15.2127H59.1971L58.1878 17.6915H55.709L60.449 6.55298H62.6924L67.4325 17.6915H64.8895H64.8823ZM61.5297 9.47761L60.0603 13.0656H62.9992L61.5297 9.47761Z" fill="#141A25"/>
<path d="M78.6461 17.6815L73.289 10.6517V17.6815H70.8887V6.62146H73.1321L78.3144 13.4301V6.62146H80.7147V17.6815H78.6461Z" fill="#141A25"/>
<path d="M93.0826 17.6815L87.7255 10.6517V17.6815H85.3252V6.62146H87.5686L92.7509 13.4301V6.62146H95.1512V17.6815H93.0826Z" fill="#141A25"/>
<path d="M99.7507 17.6815V6.62146H108.093V8.7864H102.169V11.0298H107.383V13.1947H102.169V15.5166H108.172V17.6815H99.7507Z" fill="#141A25"/>
<path d="M120.116 17.6815L114.759 10.6517V17.6815H112.358V6.62146H114.602L119.784 13.4301V6.62146H122.184V17.6815H120.116Z" fill="#141A25"/>
<path d="M132.056 17.6815H126.795V6.62146H131.931C134.189 6.62146 135.58 7.74495 135.58 9.48189V9.51399C135.58 10.7623 134.916 11.4578 134.128 11.9001C135.408 12.3887 136.197 13.1305 136.197 14.6178V14.6499C136.197 16.6722 134.552 17.6815 132.056 17.6815ZM133.161 9.89205C133.161 9.16446 132.591 8.7543 131.567 8.7543H129.167V11.094H131.41C132.484 11.094 133.165 10.7445 133.165 9.92415V9.89205H133.161ZM133.778 14.3182C133.778 13.5764 133.226 13.1163 131.977 13.1163H129.167V15.5487H132.059C133.133 15.5487 133.782 15.1706 133.782 14.3468V14.3147L133.778 14.3182Z" fill="#141A25"/>
<path d="M140.191 17.6815V6.62146H148.534V8.7864H142.61V11.0298H147.824V13.1947H142.61V15.5166H148.612V17.6815H140.191Z" fill="#141A25"/>
<path d="M159.527 17.6815L157.155 14.1435H155.243V17.6815H152.811V6.62146H157.865C160.472 6.62146 162.034 7.99461 162.034 10.2701V10.3022C162.034 12.0891 161.071 13.209 159.666 13.7297L162.366 17.678H159.523L159.527 17.6815ZM159.573 10.3985C159.573 9.35706 158.846 8.8185 157.662 8.8185H155.243V11.9928H157.708C158.892 11.9928 159.573 11.3615 159.573 10.427V10.3949V10.3985Z" fill="#141A25"/>
<path d="M171.278 17.871C167.832 17.871 165.464 15.4528 165.464 12.1823V12.1502C165.464 9.00796 167.914 6.43286 171.263 6.43286C173.254 6.43286 174.456 6.97142 175.608 7.94867L174.074 9.79618C173.222 9.08643 172.462 8.67626 171.181 8.67626C169.412 8.67626 168.007 10.242 168.007 12.1216V12.1537C168.007 14.176 169.398 15.6597 171.356 15.6597C172.241 15.6597 173.032 15.4386 173.646 14.9963V13.4163H171.196V11.3156H176V16.1198C174.862 17.0828 173.296 17.8746 171.274 17.8746L171.278 17.871Z" fill="#141A25"/>
<path d="M62.6525 25.8561H56.8853V29.2551H62.0391V30.236H56.8853V34.3839H55.8118V24.8646H62.6525V25.8561Z" fill="#141A25"/>
<path d="M57.0136 34.5042H55.6975V24.7388H62.7808V25.9728H57.0136V29.1293H62.1674V30.3526H57.0136V34.5006V34.5042ZM55.94 34.2616H56.7711V30.1137H61.9248V29.3789H56.7711V25.7374H62.5383V24.9884H55.94V34.2652V34.2616Z" fill="#141A25"/>
<path d="M71.8686 34.5576C68.9725 34.5576 67.0251 32.2857 67.0251 29.6464C67.0251 27.0071 68.9975 24.7102 71.8936 24.7102C74.7897 24.7102 76.7371 26.9821 76.7371 29.6214C76.7371 32.2607 74.7647 34.5576 71.8686 34.5576ZM71.8686 25.7017C69.693 25.7017 68.1415 27.4422 68.1415 29.6179C68.1415 31.7935 69.7179 33.5626 71.8936 33.5626C74.0692 33.5626 75.6207 31.822 75.6207 29.6464C75.6207 27.4708 74.0443 25.7017 71.8651 25.7017H71.8686Z" fill="#141A25"/>
<path d="M71.8871 34.6628C69.0588 34.6628 66.9224 32.4979 66.9224 29.6303C66.9224 26.7628 69.1158 24.5729 71.9121 24.5729C74.7083 24.5729 76.8768 26.7378 76.8768 29.6054C76.8768 32.4729 74.6833 34.6628 71.8871 34.6628ZM71.9121 24.8154C69.205 24.8154 67.1649 26.884 67.1649 29.6303C67.1649 32.3766 69.1943 34.4203 71.8871 34.4203C74.5799 34.4203 76.6343 32.3517 76.6343 29.6054C76.6343 26.8591 74.6049 24.8154 71.9121 24.8154ZM71.9121 33.6678C69.7043 33.6678 68.0351 31.9201 68.0351 29.6018C68.0351 27.2835 69.6901 25.5644 71.8835 25.5644C74.077 25.5644 75.7604 27.312 75.7604 29.6303C75.7604 31.9486 74.1055 33.6678 71.9121 33.6678ZM71.8871 25.8069C69.8327 25.8069 68.2812 27.4404 68.2812 29.6018C68.2812 31.7632 69.8434 33.4252 71.9121 33.4252C73.9807 33.4252 75.5179 31.7917 75.5179 29.6303C75.5179 27.469 73.9557 25.8069 71.8871 25.8069Z" fill="#141A25"/>
<path d="M89.8284 30.318C89.8284 33.0928 88.2377 34.5337 85.8552 34.5337C83.4727 34.5337 81.8962 33.0928 81.8962 30.4V24.8646H82.9698V30.3323C82.9698 32.3866 84.0576 33.5422 85.8802 33.5422C87.7027 33.5422 88.7513 32.4829 88.7513 30.4V24.8646H89.8248V30.318H89.8284Z" fill="#141A25"/>
<path d="M85.8505 34.6504C83.3324 34.6504 81.7703 33.0205 81.7703 30.3954V24.7388H83.0863V30.3277C83.0863 32.2893 84.1028 33.4164 85.8754 33.4164C87.648 33.4164 88.6253 32.3428 88.6253 30.3954V24.7388H89.9414V30.3134C89.9414 33.0312 88.4113 34.6504 85.8469 34.6504H85.8505ZM82.0164 24.9777V30.3919C82.0164 32.9063 83.4501 34.4043 85.854 34.4043C88.2579 34.4043 89.706 32.9135 89.706 30.3098V24.9777H88.875V30.3919C88.875 32.4641 87.7836 33.6553 85.8826 33.6553C83.9816 33.6553 82.8509 32.4106 82.8509 30.3241V24.9777H82.0199H82.0164Z" fill="#141A25"/>
<path d="M102.503 24.8646H103.552V34.3839H102.696L96.5469 26.5766V34.3839H95.4983V24.8646H96.5041L102.503 32.4936V24.8646Z" fill="#141A25"/>
<path d="M103.691 34.5042H102.654L102.618 34.4578L96.6866 26.9251V34.5042H95.3955V24.7388H96.5832L102.4 32.1395V24.7388H103.691V34.5042ZM102.771 34.2616H103.449V24.9849H102.643V32.8457L96.4655 24.9849H95.638V34.2616H96.4441V26.226L102.771 34.2616Z" fill="#141A25"/>
<path d="M112.647 34.3839H109.341V24.8646H112.647C115.639 24.8646 117.708 26.919 117.708 29.6118C117.708 32.3046 115.639 34.3875 112.647 34.3875V34.3839ZM112.647 25.8561H110.418V33.3924H112.647C115.054 33.3924 116.592 31.7589 116.592 29.6403C116.592 27.5218 115.054 25.8597 112.647 25.8597V25.8561Z" fill="#141A25"/>
<path d="M112.642 34.5042H109.215V24.7388H112.642C115.645 24.7388 117.825 26.786 117.825 29.6072C117.825 32.4284 115.645 34.5042 112.642 34.5042ZM109.461 34.2616H112.646C115.506 34.2616 117.586 32.3036 117.586 29.6072C117.586 26.9108 115.51 24.9813 112.646 24.9813H109.461V34.2581V34.2616ZM112.642 33.5091H110.288V25.7303H112.642C115.036 25.7303 116.708 27.3353 116.708 29.6322C116.708 31.9291 115.036 33.5091 112.642 33.5091ZM110.534 33.2666H112.642C114.893 33.2666 116.466 31.7721 116.466 29.6357C116.466 27.4993 114.893 25.9764 112.642 25.9764H110.534V33.2701V33.2666Z" fill="#141A25"/>
<path d="M131.198 34.3922H130.042L128.926 31.8777H123.744L122.616 34.3922H121.514L125.855 24.8015H126.861L131.201 34.3922H131.198ZM126.344 26.0534L124.168 30.9076H128.509L126.347 26.0534H126.344Z" fill="#141A25"/>
<path d="M131.37 34.5091H129.947L128.83 31.9946H123.805L122.678 34.5091H121.308L125.756 24.6759H126.919L131.366 34.5091H131.37ZM130.104 34.2665H130.992L126.762 24.922H125.913L121.683 34.2665H122.517L123.644 31.7521H128.984L130.1 34.2665H130.104ZM128.673 31.0281H123.958L126.323 25.753L128.673 31.0281ZM124.336 30.782H128.302L126.327 26.3451L124.336 30.782Z" fill="#141A25"/>
<path d="M138.303 34.3839H137.215V25.8561H134.019V24.8646H141.498V25.8561H138.303V34.3839Z" fill="#141A25"/>
<path d="M138.431 34.5006H137.1V25.9728H133.905V24.7388H141.627V25.9728H138.431V34.5006ZM137.343 34.2581H138.188V25.7303H141.384V24.9813H134.147V25.7303H137.343V34.2581Z" fill="#141A25"/>
<path d="M147.483 24.8646V34.3839H146.41V24.8646H147.483Z" fill="#141A25"/>
<path d="M147.623 34.5042H146.307V24.7388H147.623V34.5042ZM146.546 34.2616H147.377V24.9849H146.546V34.2616Z" fill="#141A25"/>
<path d="M157.654 34.5576C154.758 34.5576 152.811 32.2857 152.811 29.6464C152.811 27.0071 154.783 24.7102 157.679 24.7102C160.576 24.7102 162.523 26.9821 162.523 29.6214C162.523 32.2607 160.551 34.5576 157.654 34.5576ZM157.654 25.7017C155.479 25.7017 153.927 27.4422 153.927 29.6179C153.927 31.7935 155.504 33.5626 157.679 33.5626C159.855 33.5626 161.407 31.822 161.407 29.6464C161.407 27.4708 159.83 25.7017 157.654 25.7017Z" fill="#141A25"/>
<path d="M157.65 34.6628C154.822 34.6628 152.685 32.4979 152.685 29.6303C152.685 26.7628 154.879 24.5729 157.675 24.5729C160.471 24.5729 162.64 26.7378 162.64 29.6054C162.64 32.4729 160.446 34.6628 157.65 34.6628ZM157.679 24.8154C154.972 24.8154 152.931 26.884 152.931 29.6303C152.931 32.3766 154.961 34.4203 157.654 34.4203C160.346 34.4203 162.401 32.3517 162.401 29.6054C162.401 26.8591 160.371 24.8154 157.679 24.8154ZM157.679 33.6678C155.506 33.6678 153.802 31.8809 153.802 29.6018C153.802 27.3227 155.457 25.5644 157.65 25.5644C159.844 25.5644 161.527 27.3513 161.527 29.6303C161.527 31.9094 159.872 33.6678 157.679 33.6678ZM157.65 25.8069C155.596 25.8069 154.044 27.4404 154.044 29.6018C154.044 31.7632 155.606 33.4252 157.675 33.4252C159.744 33.4252 161.281 31.7917 161.281 29.6303C161.281 27.469 159.719 25.8069 157.65 25.8069Z" fill="#141A25"/>
<path d="M174.847 24.8646H175.895V34.3839H175.039L168.89 26.5766V34.3839H167.842V24.8646H168.848L174.847 32.4936V24.8646Z" fill="#141A25"/>
<path d="M175.989 34.5042H174.951L168.984 26.9251V34.5042H167.693V24.7388H168.881L174.698 32.1395V24.7388H175.989V34.5042ZM175.069 34.2616H175.747V24.9849H174.944V32.8457L168.767 24.9849H167.939V34.2616H168.742V26.226L175.069 34.2616Z" fill="#141A25"/>
</svg>
