<svg width="205" height="30" viewBox="0 0 205 30" fill="none" xmlns="http://www.w3.org/2000/svg">
<path d="M118.03 0.0552979H114.946C113.798 0.0552979 113.798 1.20296 113.798 1.20296V27.097C113.798 27.097 113.798 28.2447 114.946 28.2447H118.03C119.178 28.2447 119.178 27.097 119.178 27.097V1.20296C119.178 1.20296 119.178 0.0552979 118.03 0.0552979Z" fill="#141A25"/>
<path d="M132.162 7.44338C127.069 7.44338 123.77 9.38006 122.12 13.2534C121.977 13.6838 122.407 14.1142 122.837 14.1142H126.28C126.926 14.1142 127.5 13.6121 127.643 13.3251C128.576 11.8188 130.01 11.245 132.736 11.245C135.462 11.245 136.537 11.8906 137.542 13.3251C138.187 14.1859 137.327 15.1184 136.824 15.1901C129.508 15.5487 128.289 15.8356 126.28 16.1226C123.411 16.5529 121.259 19.3504 121.259 22.2195C121.259 25.0887 122.12 26.0211 124.2 27.4557C127.715 29.9662 134.17 29.3207 137.111 26.7384C137.47 26.4515 137.9 26.7384 137.972 27.0253C138.259 27.9578 138.689 28.173 139.55 28.173C139.98 28.173 141.415 28.173 141.415 28.173C142.563 28.173 142.563 27.0253 142.563 27.0253V15.3335C142.563 9.02142 136.609 7.29993 132.09 7.29993L132.162 7.44338ZM127.356 24.0127C126.782 23.6541 126.352 22.9368 126.352 22.2912C126.352 21.3588 126.639 20.6415 127.5 20.2111C130.082 18.8483 136.322 18.9917 136.896 19.0634C137.183 19.0634 137.613 19.3504 137.613 19.709C137.613 25.1604 130.154 25.8777 127.284 24.0127H127.356Z" fill="#141A25"/>
<path d="M159.562 7.44336C156.262 7.44336 153.537 8.3041 151.385 10.0256C151.17 10.1691 150.668 10.3125 150.668 9.88214V8.73448C150.668 8.73448 150.668 7.58682 149.52 7.58682H146.866C146.866 7.58682 145.718 7.58682 145.718 8.73448V27.1688C145.718 28.3164 146.866 28.3164 146.866 28.3164H149.52C150.668 28.3164 150.668 27.1688 150.668 27.1688V18.2027C150.668 15.6922 152.317 11.4602 157.912 11.4602C163.507 11.4602 162.503 14.1859 162.503 15.7639V27.1688C162.503 28.3164 163.65 28.3164 163.65 28.3164H166.304C166.304 28.3164 167.452 28.3164 167.452 27.1688V15.7639C167.452 10.6712 162.933 7.51509 159.634 7.51509L159.562 7.44336Z" fill="#141A25"/>
<path d="M99.1663 7.44336C90.1285 7.44336 86.3269 13.4686 86.3269 18.2027C86.3269 22.9368 90.1285 28.962 99.2381 28.962C108.348 28.962 112.006 23.152 112.006 18.2027C112.006 13.4686 108.204 7.44336 99.1663 7.44336ZM99.3098 25.0886C94.0736 25.0886 91.6348 21.2153 91.6348 18.2027C91.6348 15.1901 94.1453 11.3167 99.2381 11.3167C104.331 11.3167 106.841 15.2618 106.841 18.2027C106.841 21.1435 104.331 25.0886 99.3098 25.0886Z" fill="#141A25"/>
<path d="M192.413 0.0552979H189.759C189.759 0.0552979 188.612 0.0552967 188.612 1.20296V9.38003C188.612 9.95386 188.253 10.169 187.966 9.95386C180.722 4.43075 169.604 9.95386 169.675 18.2027C169.675 27.3839 180.578 32.3332 187.966 26.5232C188.325 26.2363 188.612 26.5232 188.612 27.097C188.612 27.1688 188.612 28.3164 189.759 28.3164H192.413C192.413 28.3164 193.561 28.3164 193.561 27.1688V1.27469C193.561 0.127027 192.413 0.127025 192.413 0.127025V0.0552979ZM181.511 25.1604C177.637 25.1604 174.696 22.1477 174.696 18.1309C174.696 14.1859 177.924 11.4602 181.511 11.4602C185.097 11.4602 188.468 14.1141 188.468 18.2027C188.468 22.4347 185.384 25.1604 181.511 25.1604Z" fill="#141A25"/>
<path d="M83.6004 18.3461C83.0983 16.4812 83.0983 15.5487 81.6637 14.4728C81.592 14.4728 81.6637 14.1859 81.8789 14.1141C83.8873 12.6796 85.3936 10.3842 85.3936 7.802C85.3936 2.63753 81.1616 0.0552979 77.4317 0.0552979H61.0058C61.0058 0.0552979 59.8582 0.0552967 59.8582 1.20296V27.097C59.8582 28.2447 61.0058 28.2447 61.0058 28.2447H63.5163C63.5163 28.2447 64.664 28.2447 64.664 27.097V16.6964C64.664 15.5487 65.8116 15.5487 65.8116 15.5487H74.2039C75.7102 15.5487 76.9296 15.9073 77.5034 16.6964C79.9422 20.0676 79.1532 23.5106 80.3008 27.097C80.516 27.7426 81.0899 28.2447 82.1658 28.2447H85.4653C85.7522 28.2447 85.9674 27.8143 85.8957 27.5991C84.5328 24.73 84.4611 21.7891 83.5286 18.3461H83.6004ZM75.8537 11.8188H65.8834C65.8834 11.8188 64.7357 11.8188 64.7357 10.6711V4.86112C64.7357 4.86112 64.7357 3.71346 65.8834 3.71346H75.8537C75.8537 3.71346 80.2291 3.71346 80.2291 7.73027C80.2291 11.7471 75.8537 11.7471 75.8537 11.7471V11.8188Z" fill="#141A25"/>
<path d="M54.5507 21.6456H0.682373V28.2447H54.5507V21.6456Z" fill="#141A25"/>
<path d="M0.682373 19.2069H54.5507V0.0552979H0.682373V19.2069ZM2.97769 2.20716H52.3271V17.1267H2.97769V2.20716Z" fill="#141A25"/>
<path d="M202.455 2.78103C202.455 1.92029 201.953 1.56165 200.949 1.56165H199.371V5.79364H200.016V3.92869H200.733L201.881 5.79364H202.598L201.379 3.92869C202.025 3.85696 202.455 3.49832 202.455 2.78103ZM199.944 3.49832V2.20721H200.805C201.236 2.20721 201.738 2.27893 201.738 2.85276C201.738 3.42659 201.236 3.57005 200.733 3.57005H199.944V3.49832Z" fill="#141A25"/>
<path d="M200.734 0.0552979C198.726 0.0552979 197.004 1.63333 197.004 3.71346C197.004 5.7936 198.726 7.37163 200.734 7.37163C202.742 7.37163 204.464 5.7936 204.464 3.71346C204.464 1.63333 202.742 0.0552979 200.734 0.0552979ZM200.734 6.7978C199.084 6.7978 197.721 5.50668 197.721 3.71346C197.721 1.92024 199.013 0.629127 200.734 0.629127C202.456 0.629127 203.675 1.92024 203.675 3.71346C203.675 5.50668 202.384 6.7978 200.734 6.7978Z" fill="#141A25"/>
</svg>
