<svg width="138" height="39" viewBox="0 0 138 39" fill="none" xmlns="http://www.w3.org/2000/svg">
<path fill-rule="evenodd" clip-rule="evenodd" d="M0.132324 38.7833L10.2795 8.34013C11.0749 5.95572 13.3196 0.312744 23.3419 0.312744H137.302L127.419 29.5087C126.562 32.018 125.238 38.7833 112.331 38.7833H0.132324Z" fill="black"/>
<path fill-rule="evenodd" clip-rule="evenodd" d="M13.5372 9.43199C15.0655 4.91137 18.822 3.82102 23.373 3.74219H132.517C129.618 12.3307 126.641 20.9037 123.804 29.5243C122.042 34.6373 117.149 35.2757 112.301 35.3538H4.90186L13.5372 9.43199Z" fill="white"/>
<path fill-rule="evenodd" clip-rule="evenodd" d="M128.901 6.64172C128.896 6.2999 128.759 5.97332 128.517 5.7316C128.275 5.48987 127.949 5.3521 127.607 5.34766C126.89 5.34766 126.313 5.94006 126.313 6.64172C126.313 7.35821 126.89 7.93578 127.607 7.93578C128.308 7.93578 128.901 7.35821 128.901 6.64172ZM55.9191 11.224C55.9191 11.224 56.6832 6.64094 61.9827 6.64094H69.9321L66.6751 17.0847H61.3279L63.2612 11.5666C63.2612 11.5666 63.4797 10.3975 62.5439 10.3975C61.6089 10.3975 61.157 10.6777 60.8292 11.7844L56.0283 26.6864C56.0283 26.6864 55.3579 28.7274 56.5739 28.7274C56.5739 28.7274 57.7899 28.9451 58.4604 26.5139L60.1127 20.8873H65.3654L62.9334 28.7274C62.9334 28.7274 62.3254 32.313 55.7474 32.313C55.7474 32.313 48.3428 32.8117 50.1668 28.0109L55.9191 11.224ZM104.211 31.285L107.251 21.5273H112.535L111.132 26.7028C111.132 26.7028 110.601 28.7438 111.881 28.7438C113.173 28.7438 114 25.767 114.109 25.2222C114.217 24.6914 114.981 22.3226 113.688 21.1691C112.394 20.0303 108.435 19.0648 110.133 13.7809L111.38 9.61852C111.38 9.61852 111.849 6.17342 118.894 6.17342C118.894 6.17342 122.261 6.06415 125.487 6.96875L122.479 15.8383H117.396L118.815 11.3333C118.815 11.3333 119.252 10.1641 118.019 10.1641C116.772 10.1641 116.306 11.4894 115.946 12.6429C115.572 13.7809 115.292 15.7602 116.679 16.9138C118.066 18.0518 121.73 19.4239 120.233 23.9437C118.753 28.4956 117.52 30.9572 114.731 31.6129C111.973 32.2513 109.104 32.3918 104.211 31.285ZM11.0742 31.285L14.1291 21.5273H19.3982L17.9949 26.7028C17.9949 26.7028 17.4649 28.7438 18.759 28.7438C20.053 28.7438 20.8788 25.767 20.9724 25.2222C21.0817 24.6914 21.8458 22.3226 20.5518 21.1691C19.2577 20.0303 15.3146 19.0648 16.9974 13.7809L18.2446 9.61852C18.2446 9.61852 18.7129 6.17342 25.7577 6.17342C25.7577 6.17342 29.1247 6.06415 32.3669 6.96875L29.3425 15.8383H24.2614L25.6796 11.3333C25.6796 11.3333 26.1167 10.1641 24.8851 10.1641C23.6378 10.1641 23.1859 11.4894 22.8113 12.6429C22.4374 13.7809 22.1572 15.7602 23.5442 16.9138C24.9467 18.0518 28.5948 19.4239 27.1142 23.9437C25.6179 28.4956 24.3863 30.9572 21.5961 31.6129C18.837 32.2513 15.9687 32.3918 11.0742 31.285ZM95.2318 31.8306H90.0563L98.2242 6.56289H107.499C107.499 6.56289 109.604 6.23586 109.104 8.85442C108.591 11.4886 107.422 17.9105 104.506 19.0016C104.506 19.0016 106.034 20.5298 105.223 22.7105L102.963 29.1957C102.963 29.1957 102.526 30.3024 103.119 31.8298H97.9432C97.9432 31.8298 97.4297 31.2687 98.0057 29.4134L100.126 22.7105C100.126 22.7105 100.64 20.7468 98.879 20.7468L95.2318 31.8306ZM63.9785 31.8306H69.0759L72.8948 20.9037C75.2956 21.091 74.4847 22.3226 74.4847 22.3226L72.3188 28.8062C71.5227 31.1141 72.0995 31.8306 72.0995 31.8306H77.1501C76.9323 30.318 77.2297 29.6023 77.2297 29.6023L79.739 21.45C80.5335 19.0968 78.9429 18.5201 77.5879 18.5201C76.2158 18.5201 77.2297 17.4445 77.2297 17.4445L85.9431 7.26611L78.4449 31.8322H88.468L89.6997 28.1537H85.3656L87.4386 21.0926H90.9765L92.2082 17.585H88.4829L90.6183 10.3054H95.7009L96.9629 6.56445H82.2631L74.626 15.9639L77.9142 6.56445H72.3657L63.9785 31.8306ZM41.0647 31.8306H46.9723L55.8106 6.56367H49.903L41.0647 31.8306ZM25.7264 31.8306L34.0808 6.56367H40.9242L39.3344 20.3277L44.2444 6.56367H47.9073L39.0542 31.8306H32.569L33.4268 18.6598L29.3269 31.8306H25.7264Z" fill="black"/>
<path fill-rule="evenodd" clip-rule="evenodd" d="M101.249 17.2252H100.095L102.355 10.2109H103.414C103.913 10.2109 104.583 10.1797 103.897 12.5641C103.228 14.9189 102.464 17.2252 101.249 17.2252ZM128.744 6.64174C128.746 6.94536 128.627 7.23726 128.414 7.45349C128.201 7.66972 127.911 7.79263 127.607 7.79531C127.303 7.79677 127.011 7.67787 126.795 7.46461C126.579 7.25136 126.456 6.96111 126.453 6.65735C126.453 6.01813 126.968 5.50378 127.607 5.50378C128.231 5.50378 128.744 6.01813 128.744 6.64174Z" fill="white"/>
<path fill-rule="evenodd" clip-rule="evenodd" d="M127.124 7.32691H127.311V6.70329H127.778C128.075 6.70329 127.981 6.96866 128.013 7.14037L128.043 7.32691H128.261C128.183 7.20281 128.215 7.17159 128.2 6.98427C128.168 6.73451 128.168 6.70329 128.028 6.61041C128.168 6.51675 128.215 6.4387 128.215 6.26777C128.183 5.93997 127.98 5.89392 127.762 5.89392H127.124V7.32691Z" fill="black"/>
<path fill-rule="evenodd" clip-rule="evenodd" d="M127.763 6.06494C127.873 6.06494 128.043 6.09616 128.028 6.32953C127.998 6.51685 127.888 6.54807 127.763 6.54807H127.312V6.06494H127.763Z" fill="white"/>
</svg>
