<svg width="886" height="885" viewBox="0 0 886 885" fill="none" xmlns="http://www.w3.org/2000/svg">
<circle cx="442.959" cy="442.433" r="442.211" fill="#141A25"/>
<path d="M477.077 309.981C449.509 311.234 439.485 320.005 439.485 345.484V548.48C439.485 569.364 450.762 574.794 477.077 577.301V583.148H372.237V577.301C397.716 575.212 409.411 568.947 409.411 548.48V346.737L294.965 583.148H287.029L177.595 344.649V548.48C177.595 569.782 189.29 574.794 215.187 577.301V583.148H128.308V577.301C154.622 575.212 165.899 569.364 165.899 548.48V345.484C165.899 320.005 156.293 311.234 128.308 309.981V304.133H191.796L301.648 543.05L416.93 304.133H477.077V309.981Z" fill="white"/>
<path d="M610.319 589.413C533.047 589.413 477.077 528.43 477.077 450.323C477.495 360.52 531.794 297.867 616.167 297.867C667.543 297.867 709.311 321.675 720.589 358.014L689.68 368.038C679.656 333.37 647.911 309.144 610.319 309.144C552.679 309.144 510.074 362.191 510.492 438.628C510.91 512.976 557.691 576.882 622.85 576.882C645.823 576.882 671.302 570.199 688.009 553.492V482.902C688.009 459.93 678.402 449.487 647.911 448.652V442.804H755.675V448.652C728.943 449.487 718.083 461.6 718.083 482.902V540.961C699.705 566.44 662.113 589.413 610.319 589.413Z" fill="white"/>
</svg>
